<svg xmlns="http://www.w3.org/2000/svg" xmlns:xlink="http://www.w3.org/1999/xlink" width="500" zoomAndPan="magnify" viewBox="0 0 375 374.999991" height="500" preserveAspectRatio="xMidYMid meet" version="1.0"><defs><g/><clipPath id="ae1fef7c2a"><path d="M 195.183594 212 L 205 212 L 205 227 L 195.183594 227 Z M 195.183594 212 " clip-rule="nonzero"/></clipPath><clipPath id="b1412575c8"><path d="M 213 212 L 222.933594 212 L 222.933594 227 L 213 227 Z M 213 212 " clip-rule="nonzero"/></clipPath><clipPath id="26c60a29d5"><path d="M 204 209 L 214 209 L 214 230.722656 L 204 230.722656 Z M 204 209 " clip-rule="nonzero"/></clipPath><clipPath id="f8b60c2e5b"><path d="M 204 208.972656 L 214 208.972656 L 214 230.722656 L 204 230.722656 Z M 204 208.972656 " clip-rule="nonzero"/></clipPath></defs><g clip-path="url(#ae1fef7c2a)"><path fill="#6db5e7" d="M 203.9375 226.707031 C 203.785156 226.707031 203.632812 226.652344 203.515625 226.554688 L 195.753906 220.390625 C 195.585938 220.257812 195.492188 220.0625 195.492188 219.847656 C 195.492188 219.632812 195.585938 219.433594 195.753906 219.300781 L 203.515625 213.136719 C 203.632812 213.039062 203.785156 212.988281 203.9375 212.988281 C 204.152344 212.988281 204.347656 213.085938 204.480469 213.253906 C 204.59375 213.398438 204.644531 213.582031 204.621094 213.765625 C 204.601562 213.949219 204.507812 214.113281 204.363281 214.226562 L 197.292969 219.847656 L 204.363281 225.464844 C 204.507812 225.582031 204.601562 225.746094 204.621094 225.929688 C 204.644531 226.113281 204.59375 226.292969 204.480469 226.441406 C 204.347656 226.609375 204.152344 226.707031 203.9375 226.707031 " fill-opacity="1" fill-rule="nonzero"/><path fill="#00bf63" d="M 203.9375 212.691406 C 203.71875 212.691406 203.503906 212.769531 203.332031 212.90625 L 195.574219 219.070312 C 195.335938 219.257812 195.199219 219.542969 195.199219 219.847656 C 195.199219 220.152344 195.335938 220.4375 195.574219 220.625 L 203.332031 226.789062 C 203.503906 226.925781 203.71875 227 203.9375 227 C 204.242188 227 204.523438 226.863281 204.710938 226.621094 C 204.871094 226.414062 204.941406 226.15625 204.914062 225.894531 C 204.882812 225.632812 204.75 225.398438 204.546875 225.234375 L 197.765625 219.847656 L 204.546875 214.460938 C 204.75 214.296875 204.882812 214.0625 204.914062 213.800781 C 204.941406 213.539062 204.871094 213.277344 204.710938 213.070312 C 204.523438 212.832031 204.242188 212.691406 203.9375 212.691406 Z M 203.9375 213.285156 C 204.054688 213.285156 204.171875 213.335938 204.25 213.4375 C 204.386719 213.609375 204.355469 213.859375 204.183594 213.996094 L 196.816406 219.847656 L 204.183594 225.699219 C 204.355469 225.835938 204.386719 226.085938 204.25 226.257812 C 204.171875 226.359375 204.054688 226.410156 203.9375 226.410156 C 203.851562 226.410156 203.769531 226.382812 203.695312 226.324219 L 195.933594 220.160156 C 195.839844 220.085938 195.785156 219.96875 195.785156 219.847656 C 195.785156 219.722656 195.839844 219.609375 195.933594 219.535156 L 203.695312 213.371094 C 203.765625 213.3125 203.851562 213.285156 203.9375 213.285156 " fill-opacity="1" fill-rule="nonzero"/></g><g clip-path="url(#b1412575c8)"><path fill="#6db5e7" d="M 214.175781 226.707031 C 213.964844 226.707031 213.769531 226.609375 213.636719 226.441406 C 213.402344 226.140625 213.453125 225.703125 213.753906 225.464844 L 220.824219 219.847656 L 213.753906 214.226562 C 213.453125 213.992188 213.402344 213.554688 213.636719 213.253906 C 213.769531 213.085938 213.964844 212.988281 214.175781 212.988281 C 214.332031 212.988281 214.480469 213.039062 214.601562 213.136719 L 222.363281 219.300781 C 222.53125 219.433594 222.625 219.632812 222.625 219.847656 C 222.625 220.0625 222.53125 220.257812 222.363281 220.390625 L 214.601562 226.554688 C 214.480469 226.652344 214.332031 226.707031 214.175781 226.707031 " fill-opacity="1" fill-rule="nonzero"/><path fill="#00bf63" d="M 214.175781 212.691406 C 213.875 212.691406 213.59375 212.832031 213.40625 213.070312 C 213.074219 213.5 213.144531 214.121094 213.570312 214.460938 L 220.351562 219.847656 L 213.570312 225.234375 C 213.144531 225.570312 213.074219 226.195312 213.40625 226.621094 C 213.59375 226.863281 213.875 227 214.175781 227 C 214.398438 227 214.609375 226.925781 214.78125 226.789062 L 222.542969 220.625 C 222.78125 220.4375 222.917969 220.152344 222.917969 219.847656 C 222.917969 219.542969 222.78125 219.257812 222.542969 219.070312 L 214.785156 212.90625 C 214.613281 212.769531 214.398438 212.691406 214.175781 212.691406 Z M 214.175781 213.285156 C 214.261719 213.285156 214.351562 213.3125 214.421875 213.371094 L 222.179688 219.535156 C 222.277344 219.609375 222.332031 219.722656 222.332031 219.847656 C 222.332031 219.96875 222.277344 220.085938 222.179688 220.160156 L 214.421875 226.324219 C 214.351562 226.382812 214.261719 226.410156 214.175781 226.410156 C 214.0625 226.410156 213.945312 226.359375 213.867188 226.257812 C 213.734375 226.085938 213.761719 225.835938 213.933594 225.699219 L 221.300781 219.847656 L 213.933594 213.996094 C 213.761719 213.859375 213.734375 213.609375 213.867188 213.4375 C 213.945312 213.335938 214.0625 213.285156 214.175781 213.285156 " fill-opacity="1" fill-rule="nonzero"/></g><g clip-path="url(#26c60a29d5)"><path fill="#6db5e7" d="M 205.203125 230.425781 C 205.117188 230.425781 205.035156 230.410156 204.953125 230.378906 C 204.78125 230.3125 204.648438 230.179688 204.574219 230.011719 C 204.5 229.839844 204.496094 229.652344 204.558594 229.480469 L 212.140625 209.710938 C 212.242188 209.449219 212.5 209.269531 212.78125 209.269531 C 212.867188 209.269531 212.949219 209.285156 213.027344 209.316406 C 213.382812 209.453125 213.558594 209.859375 213.421875 210.214844 L 205.84375 229.980469 C 205.742188 230.246094 205.484375 230.425781 205.203125 230.425781 " fill-opacity="1" fill-rule="nonzero"/></g><g clip-path="url(#f8b60c2e5b)"><path fill="#00bf63" d="M 212.78125 208.972656 C 212.378906 208.972656 212.011719 209.230469 211.867188 209.605469 L 204.289062 229.375 C 204.195312 229.621094 204.199219 229.890625 204.304688 230.132812 C 204.410156 230.371094 204.605469 230.558594 204.847656 230.652344 C 204.960938 230.699219 205.082031 230.722656 205.203125 230.722656 C 205.605469 230.722656 205.972656 230.464844 206.117188 230.089844 L 213.695312 210.320312 C 213.890625 209.8125 213.636719 209.238281 213.132812 209.039062 C 213.019531 208.996094 212.902344 208.972656 212.78125 208.972656 Z M 212.78125 209.5625 C 212.828125 209.5625 212.875 209.574219 212.921875 209.589844 C 213.125 209.671875 213.226562 209.902344 213.148438 210.105469 L 205.570312 229.875 C 205.511719 230.03125 205.359375 230.128906 205.203125 230.128906 C 205.152344 230.128906 205.105469 230.121094 205.058594 230.101562 C 204.855469 230.023438 204.753906 229.792969 204.835938 229.585938 L 212.414062 209.820312 C 212.472656 209.660156 212.621094 209.5625 212.78125 209.5625 " fill-opacity="1" fill-rule="nonzero"/></g><g fill="#00bf63" fill-opacity="1"><g transform="translate(93.573681, 194.025501)"><g><path d="M 39.5625 -9.796875 C 39.625 -9.878906 39.65625 -9.992188 39.65625 -10.140625 L 39.734375 -10.921875 C 39.847656 -12.972656 39.945312 -15.035156 40.03125 -17.109375 C 40.257812 -21.617188 40.503906 -26.109375 40.765625 -30.578125 C 40.953125 -33.898438 41.160156 -37.203125 41.390625 -40.484375 C 41.609375 -43.910156 41.820312 -47.335938 42.03125 -50.765625 C 42.0625 -51.160156 42.085938 -51.546875 42.109375 -51.921875 C 42.253906 -54.242188 42.75 -55.664062 43.59375 -56.1875 C 44.445312 -56.707031 45.046875 -56.398438 45.390625 -55.265625 C 45.273438 -53.117188 45.148438 -50.96875 45.015625 -48.8125 C 44.898438 -47.257812 44.796875 -45.710938 44.703125 -44.171875 C 44.535156 -41.035156 44.351562 -37.882812 44.15625 -34.71875 C 43.644531 -26.289062 43.1875 -17.875 42.78125 -9.46875 C 42.28125 0.800781 42.1875 11.070312 42.5 21.34375 C 42.550781 22.363281 42.597656 23.390625 42.640625 24.421875 C 42.660156 27.140625 42.375 28.535156 41.78125 28.609375 C 41.644531 28.835938 41.484375 28.941406 41.296875 28.921875 C 40.628906 28.859375 40.1875 27 39.96875 23.34375 C 39.757812 19.695312 39.632812 16.140625 39.59375 12.671875 C 39.351562 6.410156 39.34375 0.410156 39.5625 -5.328125 L 39.5625 -5.671875 C 39.582031 -5.867188 39.582031 -6.082031 39.5625 -6.3125 C 39.582031 -7.050781 39.238281 -7.40625 38.53125 -7.375 L 37.953125 -7.375 C 36.421875 -7.40625 34.890625 -7.394531 33.359375 -7.34375 C 27.554688 -6.96875 21.773438 -6.285156 16.015625 -5.296875 C 15.566406 -5.210938 15.1875 -5.15625 14.875 -5.125 C 14.425781 -5.039062 14.082031 -4.957031 13.84375 -4.875 C 13.800781 -4.789062 13.765625 -4.679688 13.734375 -4.546875 C 13.671875 -4.191406 13.582031 -2.8125 13.46875 -0.40625 C 13.363281 2 13.207031 5.054688 13 8.765625 C 12.851562 11.765625 12.710938 14.785156 12.578125 17.828125 C 12.578125 18.160156 12.535156 18.484375 12.453125 18.796875 C 12.335938 19.078125 12.164062 19.265625 11.9375 19.359375 C 11.75 19.617188 11.46875 19.75 11.09375 19.75 C 10.613281 19.707031 10.34375 19.460938 10.28125 19.015625 C 10.25 18.179688 10.25 17.363281 10.28125 16.5625 L 10.703125 2.53125 C 10.765625 0.789062 10.835938 -1.191406 10.921875 -3.421875 C 10.890625 -3.929688 10.625 -4.175781 10.125 -4.15625 C 10.03125 -4.15625 9.941406 -4.140625 9.859375 -4.109375 C 9.460938 -3.992188 9.054688 -3.894531 8.640625 -3.8125 C 7.441406 -3.519531 6.257812 -3.234375 5.09375 -2.953125 C 4.675781 -2.835938 4.296875 -2.671875 3.953125 -2.453125 C 3.816406 -2.304688 3.75 -2.117188 3.75 -1.890625 C 3.707031 -1.671875 3.773438 -1.492188 3.953125 -1.359375 C 4.765625 -0.671875 5.703125 -0.171875 6.765625 0.140625 L 7.734375 0.4375 C 8.015625 0.519531 8.316406 0.609375 8.640625 0.703125 C 8.773438 0.742188 8.847656 0.859375 8.859375 1.046875 C 8.878906 1.234375 8.816406 1.382812 8.671875 1.5 C 8.554688 1.582031 8.453125 1.671875 8.359375 1.765625 C 8.335938 1.765625 8.3125 1.773438 8.28125 1.796875 C 7.832031 2.191406 7.3125 2.378906 6.71875 2.359375 C 4.84375 2.191406 3.179688 1.539062 1.734375 0.40625 C 0.722656 -0.445312 0.640625 -1.390625 1.484375 -2.421875 C 1.796875 -2.773438 2.148438 -3.09375 2.546875 -3.375 C 2.921875 -3.6875 3.332031 -3.957031 3.78125 -4.1875 C 5.113281 -4.84375 6.5 -5.335938 7.9375 -5.671875 C 8.363281 -5.796875 8.773438 -5.894531 9.171875 -5.96875 C 9.578125 -6.0625 9.976562 -6.164062 10.375 -6.28125 C 10.5625 -6.332031 10.726562 -6.390625 10.875 -6.453125 C 10.96875 -6.617188 11.023438 -6.925781 11.046875 -7.375 C 11.078125 -7.632812 11.09375 -7.894531 11.09375 -8.15625 L 11.09375 -8.609375 L 11.34375 -16.515625 L 11.9375 -34.71875 C 12.03125 -36.945312 12.050781 -39.164062 12 -41.375 C 11.957031 -43.59375 11.710938 -45.789062 11.265625 -47.96875 C 11.148438 -48.476562 11.289062 -48.925781 11.6875 -49.3125 C 11.800781 -49.425781 11.929688 -49.53125 12.078125 -49.625 C 12.378906 -49.9375 12.707031 -50.066406 13.0625 -50.015625 C 13.414062 -49.972656 13.691406 -49.773438 13.890625 -49.421875 C 14.148438 -48.828125 14.347656 -48.203125 14.484375 -47.546875 C 14.796875 -45.929688 14.972656 -44.300781 15.015625 -42.65625 C 14.972656 -41.40625 14.953125 -40.175781 14.953125 -38.96875 C 14.953125 -36.320312 14.925781 -33.679688 14.875 -31.046875 C 14.726562 -27.421875 14.570312 -23.78125 14.40625 -20.125 C 14.269531 -16.957031 14.144531 -13.785156 14.03125 -10.609375 L 13.953125 -9.75 C 13.878906 -9.332031 13.921875 -8.773438 14.078125 -8.078125 C 14.234375 -7.378906 15.039062 -7.171875 16.5 -7.453125 L 17.421875 -7.625 C 20.484375 -8.082031 24.253906 -8.550781 28.734375 -9.03125 C 33.210938 -9.507812 36.785156 -9.75 39.453125 -9.75 C 39.472656 -9.75 39.507812 -9.765625 39.5625 -9.796875 Z M 39.5625 -9.796875 "/></g></g></g><g fill="#00bf63" fill-opacity="1"><g transform="translate(139.820077, 194.025501)"><g><path d="M 28.546875 -11.171875 C 28.785156 -11.472656 29.03125 -11.691406 29.28125 -11.828125 C 29.539062 -11.972656 29.695312 -11.972656 29.75 -11.828125 C 29.800781 -11.691406 29.660156 -11.351562 29.328125 -10.8125 C 28.566406 -9.6875 27.445312 -8.613281 25.96875 -7.59375 C 24.5 -6.570312 22.867188 -5.703125 21.078125 -4.984375 C 19.296875 -4.265625 17.554688 -3.785156 15.859375 -3.546875 C 14.160156 -3.316406 12.722656 -3.429688 11.546875 -3.890625 C 10.367188 -4.347656 9.632812 -5.238281 9.34375 -6.5625 C 8.351562 -4.957031 7.175781 -3.695312 5.8125 -2.78125 C 4.457031 -1.875 3.171875 -1.492188 1.953125 -1.640625 C 0.554688 -1.835938 -0.367188 -2.359375 -0.828125 -3.203125 C -1.296875 -4.054688 -1.453125 -5.035156 -1.296875 -6.140625 C -1.140625 -7.242188 -0.804688 -8.296875 -0.296875 -9.296875 C 0.0976562 -10.054688 0.648438 -10.765625 1.359375 -11.421875 C 2.066406 -12.078125 2.804688 -12.582031 3.578125 -12.9375 C 4.535156 -13.425781 5.5 -13.648438 6.46875 -13.609375 C 7.445312 -13.566406 8.488281 -13.25 9.59375 -12.65625 C 9.59375 -12.65625 9.609375 -12.679688 9.640625 -12.734375 C 9.640625 -12.847656 9.660156 -12.984375 9.703125 -13.140625 C 9.753906 -13.296875 9.847656 -13.429688 9.984375 -13.546875 C 10.179688 -13.679688 10.429688 -13.789062 10.734375 -13.875 C 11.035156 -13.957031 11.328125 -13.972656 11.609375 -13.921875 C 12.054688 -13.835938 12.332031 -13.609375 12.4375 -13.234375 C 12.550781 -12.867188 12.570312 -12.46875 12.5 -12.03125 C 12.4375 -11.59375 12.363281 -11.222656 12.28125 -10.921875 C 12.257812 -10.847656 12.25 -10.785156 12.25 -10.734375 C 11.78125 -8.867188 11.945312 -7.554688 12.75 -6.796875 C 13.550781 -6.046875 14.707031 -5.703125 16.21875 -5.765625 C 17.726562 -5.828125 19.332031 -6.144531 21.03125 -6.71875 C 22.738281 -7.300781 24.285156 -7.992188 25.671875 -8.796875 C 27.066406 -9.597656 28.023438 -10.390625 28.546875 -11.171875 Z M 2.515625 -4.15625 C 3.109375 -3.75 3.742188 -3.785156 4.421875 -4.265625 C 5.109375 -4.753906 5.773438 -5.453125 6.421875 -6.359375 C 7.078125 -7.273438 7.613281 -8.179688 8.03125 -9.078125 C 8.457031 -9.984375 8.695312 -10.664062 8.75 -11.125 C 7.394531 -11.863281 6.234375 -11.992188 5.265625 -11.515625 C 4.304688 -11.046875 3.554688 -10.296875 3.015625 -9.265625 C 2.472656 -8.242188 2.160156 -7.222656 2.078125 -6.203125 C 1.992188 -5.191406 2.140625 -4.507812 2.515625 -4.15625 Z M 2.515625 -4.15625 "/></g></g></g><g fill="#00bf63" fill-opacity="1"><g transform="translate(167.444281, 194.025501)"><g><path d="M 5.71875 -7.03125 C 6.15625 -6.46875 6.4375 -5.878906 6.5625 -5.265625 C 6.695312 -4.660156 6.75 -4.003906 6.71875 -3.296875 C 6.6875 -2.585938 6.457031 -1.957031 6.03125 -1.40625 C 5.601562 -0.851562 4.894531 -0.519531 3.90625 -0.40625 C 2.914062 -0.332031 2.03125 -0.484375 1.25 -0.859375 C 0.46875 -1.234375 -0.0195312 -1.78125 -0.21875 -2.5 C -0.414062 -3.226562 -0.175781 -4.078125 0.5 -5.046875 C 0.945312 -5.585938 1.488281 -6.054688 2.125 -6.453125 C 2.34375 -6.597656 2.566406 -6.753906 2.796875 -6.921875 C 2.035156 -7.742188 1.3125 -8.582031 0.625 -9.4375 C -0.0507812 -10.300781 -0.484375 -11.078125 -0.671875 -11.765625 C -0.878906 -12.546875 -0.75 -13.285156 -0.28125 -13.984375 C 0.1875 -14.679688 1 -15.085938 2.15625 -15.203125 C 2.726562 -15.253906 3.257812 -15.222656 3.75 -15.109375 C 4.25 -15.003906 4.710938 -14.765625 5.140625 -14.390625 C 5.234375 -14.296875 5.296875 -14.191406 5.328125 -14.078125 C 5.367188 -13.972656 5.351562 -13.835938 5.28125 -13.671875 C 5.132812 -13.421875 4.921875 -13.296875 4.640625 -13.296875 C 4.429688 -13.296875 4.226562 -13.320312 4.03125 -13.375 C 3.832031 -13.457031 3.648438 -13.539062 3.484375 -13.625 C 3.359375 -13.6875 3.25 -13.742188 3.15625 -13.796875 C 2.78125 -13.929688 2.488281 -13.910156 2.28125 -13.734375 C 2.082031 -13.554688 1.984375 -13.28125 1.984375 -12.90625 C 2.015625 -12.25 2.285156 -11.546875 2.796875 -10.796875 C 3.316406 -10.046875 3.828125 -9.359375 4.328125 -8.734375 C 4.535156 -8.515625 4.707031 -8.300781 4.84375 -8.09375 C 4.988281 -7.945312 5.28125 -7.59375 5.71875 -7.03125 Z M 3.09375 -1.859375 C 3.46875 -1.878906 3.710938 -2.082031 3.828125 -2.46875 C 3.941406 -2.851562 3.984375 -3.273438 3.953125 -3.734375 C 3.921875 -4.203125 3.890625 -4.554688 3.859375 -4.796875 C 3.804688 -4.929688 3.71875 -5.019531 3.59375 -5.0625 C 3.46875 -5.101562 3.34375 -5.097656 3.21875 -5.046875 C 2.800781 -4.710938 2.488281 -4.285156 2.28125 -3.765625 C 2.082031 -3.253906 2.101562 -2.804688 2.34375 -2.421875 C 2.414062 -2.273438 2.515625 -2.148438 2.640625 -2.046875 C 2.773438 -1.941406 2.925781 -1.878906 3.09375 -1.859375 Z M 3.09375 -1.859375 "/></g></g></g><g fill="#00bf63" fill-opacity="1"><g transform="translate(175.905401, 194.025501)"><g><path d="M 5.71875 -7.03125 C 6.15625 -6.46875 6.4375 -5.878906 6.5625 -5.265625 C 6.695312 -4.660156 6.75 -4.003906 6.71875 -3.296875 C 6.6875 -2.585938 6.457031 -1.957031 6.03125 -1.40625 C 5.601562 -0.851562 4.894531 -0.519531 3.90625 -0.40625 C 2.914062 -0.332031 2.03125 -0.484375 1.25 -0.859375 C 0.46875 -1.234375 -0.0195312 -1.78125 -0.21875 -2.5 C -0.414062 -3.226562 -0.175781 -4.078125 0.5 -5.046875 C 0.945312 -5.585938 1.488281 -6.054688 2.125 -6.453125 C 2.34375 -6.597656 2.566406 -6.753906 2.796875 -6.921875 C 2.035156 -7.742188 1.3125 -8.582031 0.625 -9.4375 C -0.0507812 -10.300781 -0.484375 -11.078125 -0.671875 -11.765625 C -0.878906 -12.546875 -0.75 -13.285156 -0.28125 -13.984375 C 0.1875 -14.679688 1 -15.085938 2.15625 -15.203125 C 2.726562 -15.253906 3.257812 -15.222656 3.75 -15.109375 C 4.25 -15.003906 4.710938 -14.765625 5.140625 -14.390625 C 5.234375 -14.296875 5.296875 -14.191406 5.328125 -14.078125 C 5.367188 -13.972656 5.351562 -13.835938 5.28125 -13.671875 C 5.132812 -13.421875 4.921875 -13.296875 4.640625 -13.296875 C 4.429688 -13.296875 4.226562 -13.320312 4.03125 -13.375 C 3.832031 -13.457031 3.648438 -13.539062 3.484375 -13.625 C 3.359375 -13.6875 3.25 -13.742188 3.15625 -13.796875 C 2.78125 -13.929688 2.488281 -13.910156 2.28125 -13.734375 C 2.082031 -13.554688 1.984375 -13.28125 1.984375 -12.90625 C 2.015625 -12.25 2.285156 -11.546875 2.796875 -10.796875 C 3.316406 -10.046875 3.828125 -9.359375 4.328125 -8.734375 C 4.535156 -8.515625 4.707031 -8.300781 4.84375 -8.09375 C 4.988281 -7.945312 5.28125 -7.59375 5.71875 -7.03125 Z M 3.09375 -1.859375 C 3.46875 -1.878906 3.710938 -2.082031 3.828125 -2.46875 C 3.941406 -2.851562 3.984375 -3.273438 3.953125 -3.734375 C 3.921875 -4.203125 3.890625 -4.554688 3.859375 -4.796875 C 3.804688 -4.929688 3.71875 -5.019531 3.59375 -5.0625 C 3.46875 -5.101562 3.34375 -5.097656 3.21875 -5.046875 C 2.800781 -4.710938 2.488281 -4.285156 2.28125 -3.765625 C 2.082031 -3.253906 2.101562 -2.804688 2.34375 -2.421875 C 2.414062 -2.273438 2.515625 -2.148438 2.640625 -2.046875 C 2.773438 -1.941406 2.925781 -1.878906 3.09375 -1.859375 Z M 3.09375 -1.859375 "/></g></g></g><g fill="#00bf63" fill-opacity="1"><g transform="translate(184.366521, 194.025501)"><g><path d="M 28.546875 -11.171875 C 28.785156 -11.472656 29.03125 -11.691406 29.28125 -11.828125 C 29.539062 -11.972656 29.695312 -11.972656 29.75 -11.828125 C 29.800781 -11.691406 29.660156 -11.351562 29.328125 -10.8125 C 28.566406 -9.6875 27.445312 -8.613281 25.96875 -7.59375 C 24.5 -6.570312 22.867188 -5.703125 21.078125 -4.984375 C 19.296875 -4.265625 17.554688 -3.785156 15.859375 -3.546875 C 14.160156 -3.316406 12.722656 -3.429688 11.546875 -3.890625 C 10.367188 -4.347656 9.632812 -5.238281 9.34375 -6.5625 C 8.351562 -4.957031 7.175781 -3.695312 5.8125 -2.78125 C 4.457031 -1.875 3.171875 -1.492188 1.953125 -1.640625 C 0.554688 -1.835938 -0.367188 -2.359375 -0.828125 -3.203125 C -1.296875 -4.054688 -1.453125 -5.035156 -1.296875 -6.140625 C -1.140625 -7.242188 -0.804688 -8.296875 -0.296875 -9.296875 C 0.0976562 -10.054688 0.648438 -10.765625 1.359375 -11.421875 C 2.066406 -12.078125 2.804688 -12.582031 3.578125 -12.9375 C 4.535156 -13.425781 5.5 -13.648438 6.46875 -13.609375 C 7.445312 -13.566406 8.488281 -13.25 9.59375 -12.65625 C 9.59375 -12.65625 9.609375 -12.679688 9.640625 -12.734375 C 9.640625 -12.847656 9.660156 -12.984375 9.703125 -13.140625 C 9.753906 -13.296875 9.847656 -13.429688 9.984375 -13.546875 C 10.179688 -13.679688 10.429688 -13.789062 10.734375 -13.875 C 11.035156 -13.957031 11.328125 -13.972656 11.609375 -13.921875 C 12.054688 -13.835938 12.332031 -13.609375 12.4375 -13.234375 C 12.550781 -12.867188 12.570312 -12.46875 12.5 -12.03125 C 12.4375 -11.59375 12.363281 -11.222656 12.28125 -10.921875 C 12.257812 -10.847656 12.25 -10.785156 12.25 -10.734375 C 11.78125 -8.867188 11.945312 -7.554688 12.75 -6.796875 C 13.550781 -6.046875 14.707031 -5.703125 16.21875 -5.765625 C 17.726562 -5.828125 19.332031 -6.144531 21.03125 -6.71875 C 22.738281 -7.300781 24.285156 -7.992188 25.671875 -8.796875 C 27.066406 -9.597656 28.023438 -10.390625 28.546875 -11.171875 Z M 2.515625 -4.15625 C 3.109375 -3.75 3.742188 -3.785156 4.421875 -4.265625 C 5.109375 -4.753906 5.773438 -5.453125 6.421875 -6.359375 C 7.078125 -7.273438 7.613281 -8.179688 8.03125 -9.078125 C 8.457031 -9.984375 8.695312 -10.664062 8.75 -11.125 C 7.394531 -11.863281 6.234375 -11.992188 5.265625 -11.515625 C 4.304688 -11.046875 3.554688 -10.296875 3.015625 -9.265625 C 2.472656 -8.242188 2.160156 -7.222656 2.078125 -6.203125 C 1.992188 -5.191406 2.140625 -4.507812 2.515625 -4.15625 Z M 2.515625 -4.15625 "/></g></g></g><g fill="#00bf63" fill-opacity="1"><g transform="translate(211.990726, 194.025501)"><g><path d="M 28.46875 -11.703125 C 29.039062 -11.960938 29.367188 -12.007812 29.453125 -11.84375 C 29.554688 -11.507812 29.253906 -10.90625 28.546875 -10.03125 C 27.835938 -9.164062 26.878906 -8.28125 25.671875 -7.375 C 22.742188 -5.34375 20.28125 -4.125 18.28125 -3.71875 C 16.289062 -3.320312 14.664062 -3.445312 13.40625 -4.09375 C 12.144531 -4.75 11.207031 -5.644531 10.59375 -6.78125 C 9.851562 -8.050781 9.394531 -9.3125 9.21875 -10.5625 C 8.96875 -11.925781 8.628906 -12.695312 8.203125 -12.875 C 7.785156 -13.0625 7.332031 -12.867188 6.84375 -12.296875 C 6.363281 -11.734375 5.894531 -10.988281 5.4375 -10.0625 C 4.976562 -9.144531 4.597656 -8.25 4.296875 -7.375 C 4.003906 -6.5 3.847656 -5.835938 3.828125 -5.390625 C 3.734375 -5.128906 3.648438 -4.882812 3.578125 -4.65625 C 3.460938 -4.289062 3.332031 -3.9375 3.1875 -3.59375 C 2.8125 -2.625 2.160156 -2.269531 1.234375 -2.53125 C 0.722656 -2.625 0.425781 -2.941406 0.34375 -3.484375 C 0.3125 -3.835938 0.296875 -4.210938 0.296875 -4.609375 C 0.296875 -4.921875 0.28125 -5.253906 0.25 -5.609375 C 0.195312 -7.921875 0.140625 -10.253906 0.078125 -12.609375 C 0.078125 -12.898438 0.210938 -13.097656 0.484375 -13.203125 C 0.753906 -13.316406 1.066406 -13.363281 1.421875 -13.34375 C 1.773438 -13.332031 2.085938 -13.28125 2.359375 -13.1875 C 2.628906 -13.09375 2.773438 -12.953125 2.796875 -12.765625 C 2.859375 -12.378906 2.890625 -12.046875 2.890625 -11.765625 C 2.890625 -11.367188 2.914062 -11.082031 2.96875 -10.90625 C 3.019531 -10.726562 3.140625 -10.734375 3.328125 -10.921875 C 3.515625 -11.109375 3.832031 -11.5 4.28125 -12.09375 C 4.988281 -13.226562 5.882812 -14.191406 6.96875 -14.984375 C 7.445312 -15.347656 8.007812 -15.609375 8.65625 -15.765625 C 9.3125 -15.929688 9.941406 -15.957031 10.546875 -15.84375 C 11.191406 -15.675781 11.695312 -15.304688 12.0625 -14.734375 C 12.425781 -14.171875 12.703125 -13.523438 12.890625 -12.796875 C 13.078125 -12.066406 13.21875 -11.394531 13.3125 -10.78125 C 13.332031 -10.613281 13.359375 -10.472656 13.390625 -10.359375 C 13.523438 -9.535156 13.710938 -8.785156 13.953125 -8.109375 C 14.191406 -7.429688 14.582031 -6.898438 15.125 -6.515625 C 15.664062 -6.128906 16.457031 -5.976562 17.5 -6.0625 C 19.769531 -6.226562 21.570312 -6.703125 22.90625 -7.484375 C 24.238281 -8.265625 25.359375 -9.09375 26.265625 -9.96875 C 26.410156 -10.082031 26.535156 -10.195312 26.640625 -10.3125 C 26.847656 -10.457031 27.019531 -10.597656 27.15625 -10.734375 C 27.488281 -11.097656 27.925781 -11.421875 28.46875 -11.703125 Z M 28.46875 -11.703125 "/></g></g></g><g fill="#00bf63" fill-opacity="1"><g transform="translate(151.308084, 161.552349)"><g><path d="M 9.359375 0.484375 C 9.148438 0.484375 8.976562 0.375 8.84375 0.15625 C 8.726562 -0.03125 8.625 -0.335938 8.53125 -0.765625 L 8.328125 -1.75 C 8.171875 -2.363281 7.921875 -3.722656 7.578125 -5.828125 L 6.421875 -2.34375 L 6.09375 -1.25 C 5.945312 -0.820312 5.800781 -0.46875 5.65625 -0.1875 C 5.5 0.101562 5.28125 0.25 5 0.25 C 4.78125 0.25 4.601562 0.125 4.46875 -0.125 C 4.382812 -0.28125 4.304688 -0.484375 4.234375 -0.734375 L 4.078125 -1.375 C 3.679688 -2.726562 3.335938 -4.179688 3.046875 -5.734375 L 2.84375 -4.703125 L 2.09375 -1.65625 C 2.0625 -1.300781 1.96875 -0.773438 1.8125 -0.078125 C 1.695312 0.222656 1.503906 0.375 1.234375 0.375 C 1.046875 0.375 0.898438 0.304688 0.796875 0.171875 C 0.691406 0.0546875 0.640625 -0.0820312 0.640625 -0.25 C 0.640625 -0.894531 0.773438 -1.679688 1.046875 -2.609375 L 1.671875 -4.9375 L 2.015625 -6.75 C 2.179688 -7.601562 2.359375 -8.160156 2.546875 -8.421875 C 2.703125 -8.640625 2.890625 -8.75 3.109375 -8.75 C 3.359375 -8.75 3.546875 -8.609375 3.671875 -8.328125 C 3.828125 -7.984375 3.988281 -7.285156 4.15625 -6.234375 C 4.363281 -4.972656 4.679688 -3.601562 5.109375 -2.125 C 5.679688 -3.601562 6.171875 -5.144531 6.578125 -6.75 L 6.75 -7.59375 C 6.820312 -7.925781 6.914062 -8.195312 7.03125 -8.40625 C 7.175781 -8.695312 7.378906 -8.84375 7.640625 -8.84375 C 7.972656 -8.84375 8.222656 -8.519531 8.390625 -7.875 C 8.453125 -7.65625 8.53125 -7.203125 8.625 -6.515625 C 8.851562 -4.785156 9.132812 -3.304688 9.46875 -2.078125 L 9.75 -1.078125 C 9.894531 -0.546875 9.96875 -0.222656 9.96875 -0.109375 C 9.96875 0.0546875 9.90625 0.195312 9.78125 0.3125 C 9.65625 0.425781 9.515625 0.484375 9.359375 0.484375 Z M 9.359375 0.484375 "/></g></g></g><g fill="#00bf63" fill-opacity="1"><g transform="translate(169.575798, 161.552349)"><g><path d="M 5.5 -3.359375 C 5.5 -3.085938 5.5 -2.675781 5.5 -2.125 C 5.507812 -1.570312 5.515625 -1.15625 5.515625 -0.875 C 5.515625 -0.789062 5.519531 -0.660156 5.53125 -0.484375 C 5.539062 -0.316406 5.546875 -0.191406 5.546875 -0.109375 C 5.546875 0.0546875 5.488281 0.191406 5.375 0.296875 C 5.269531 0.398438 5.140625 0.453125 4.984375 0.453125 C 4.679688 0.453125 4.488281 0.269531 4.40625 -0.09375 C 3.925781 0.15625 3.375 0.28125 2.75 0.28125 C 2.25 0.28125 1.832031 0.171875 1.5 -0.046875 C 1.132812 -0.296875 0.921875 -0.65625 0.859375 -1.125 C 0.703125 -2.144531 0.625 -3.050781 0.625 -3.84375 C 0.625 -4.363281 0.679688 -4.960938 0.796875 -5.640625 C 0.847656 -5.972656 1.03125 -6.140625 1.34375 -6.140625 C 1.507812 -6.140625 1.644531 -6.085938 1.75 -5.984375 C 1.863281 -5.878906 1.921875 -5.742188 1.921875 -5.578125 C 1.921875 -5.398438 1.894531 -5.113281 1.84375 -4.71875 C 1.789062 -4.332031 1.765625 -4.039062 1.765625 -3.84375 C 1.765625 -3.195312 1.785156 -2.644531 1.828125 -2.1875 C 1.867188 -1.738281 1.929688 -1.375 2.015625 -1.09375 C 2.140625 -1.019531 2.265625 -0.960938 2.390625 -0.921875 C 2.515625 -0.890625 2.632812 -0.875 2.75 -0.875 C 3.269531 -0.875 3.816406 -0.957031 4.390625 -1.125 L 4.375 -2.296875 L 4.359375 -3.421875 C 4.359375 -4.242188 4.394531 -4.960938 4.46875 -5.578125 C 4.507812 -5.929688 4.695312 -6.109375 5.03125 -6.109375 C 5.195312 -6.109375 5.332031 -6.050781 5.4375 -5.9375 C 5.550781 -5.832031 5.609375 -5.703125 5.609375 -5.546875 Z M 5.5 -3.359375 "/></g></g></g><g fill="#00bf63" fill-opacity="1"><g transform="translate(183.566523, 161.552349)"><g><path d="M 5.625 0.359375 C 5.351562 0.359375 5.175781 0.210938 5.09375 -0.078125 C 5 -0.390625 4.914062 -0.835938 4.84375 -1.421875 C 4.769531 -1.984375 4.734375 -2.441406 4.734375 -2.796875 C 4.734375 -2.890625 4.738281 -3.035156 4.75 -3.234375 C 4.757812 -3.441406 4.765625 -3.597656 4.765625 -3.703125 C 4.765625 -4.421875 4.585938 -4.78125 4.234375 -4.78125 C 3.742188 -4.78125 3.304688 -4.5625 2.921875 -4.125 C 2.722656 -3.894531 2.453125 -3.460938 2.109375 -2.828125 C 2.109375 -1.367188 2.046875 -0.503906 1.921875 -0.234375 C 1.816406 0.00390625 1.648438 0.125 1.421875 0.125 C 1.265625 0.125 1.125 0.0703125 1 -0.03125 C 0.882812 -0.144531 0.828125 -0.273438 0.828125 -0.421875 C 0.828125 -0.472656 0.847656 -0.5625 0.890625 -0.6875 C 0.921875 -0.78125 0.941406 -1.054688 0.953125 -1.515625 L 0.96875 -2.375 L 0.984375 -6.609375 C 1.015625 -7.085938 1.03125 -7.40625 1.03125 -7.5625 C 1.03125 -7.757812 1.007812 -7.945312 0.96875 -8.125 C 0.9375 -8.300781 0.921875 -8.484375 0.921875 -8.671875 C 0.921875 -8.828125 0.972656 -8.957031 1.078125 -9.0625 C 1.191406 -9.175781 1.328125 -9.234375 1.484375 -9.234375 C 1.804688 -9.234375 1.992188 -9.0625 2.046875 -8.71875 C 2.109375 -8.34375 2.140625 -8.007812 2.140625 -7.71875 C 2.140625 -7.3125 2.125 -6.890625 2.09375 -6.453125 C 2.070312 -6.035156 2.0625 -5.613281 2.0625 -5.1875 L 2.078125 -4.6875 C 2.390625 -5.101562 2.722656 -5.414062 3.078125 -5.625 C 3.441406 -5.832031 3.828125 -5.9375 4.234375 -5.9375 C 4.867188 -5.9375 5.304688 -5.734375 5.546875 -5.328125 C 5.710938 -5.035156 5.804688 -4.539062 5.828125 -3.84375 L 5.875 -2.75 L 5.984375 -1.546875 C 6.046875 -1.097656 6.113281 -0.703125 6.1875 -0.359375 C 6.195312 -0.296875 6.203125 -0.242188 6.203125 -0.203125 C 6.203125 -0.0351562 6.144531 0.0976562 6.03125 0.203125 C 5.914062 0.304688 5.78125 0.359375 5.625 0.359375 Z M 5.625 0.359375 "/></g></g></g><g fill="#00bf63" fill-opacity="1"><g transform="translate(198.2365, 161.552349)"><g><path d="M 5.296875 0.375 C 5.222656 0.375 5.09375 0.289062 4.90625 0.125 C 4.726562 -0.03125 4.597656 -0.171875 4.515625 -0.296875 C 4.148438 -0.0976562 3.828125 0.0507812 3.546875 0.15625 C 3.265625 0.257812 3.03125 0.3125 2.84375 0.3125 C 1.9375 0.3125 1.28125 0.0546875 0.875 -0.453125 C 0.488281 -0.921875 0.296875 -1.648438 0.296875 -2.640625 C 0.296875 -3.566406 0.613281 -4.359375 1.25 -5.015625 C 1.894531 -5.679688 2.660156 -6.015625 3.546875 -6.015625 C 3.878906 -6.015625 4.253906 -5.925781 4.671875 -5.75 C 5.191406 -5.539062 5.453125 -5.285156 5.453125 -4.984375 C 5.453125 -4.878906 5.410156 -4.785156 5.328125 -4.703125 C 5.296875 -4.554688 5.269531 -4.316406 5.25 -3.984375 C 5.226562 -3.648438 5.210938 -3.222656 5.203125 -2.703125 C 5.203125 -2.222656 5.238281 -1.84375 5.3125 -1.5625 C 5.34375 -1.394531 5.460938 -1.054688 5.671875 -0.546875 C 5.691406 -0.484375 5.734375 -0.382812 5.796875 -0.25 L 5.828125 -0.15625 C 5.828125 0 5.773438 0.125 5.671875 0.21875 C 5.566406 0.320312 5.441406 0.375 5.296875 0.375 Z M 4.09375 -3.625 C 4.09375 -3.789062 4.101562 -3.96875 4.125 -4.15625 C 4.15625 -4.351562 4.191406 -4.5625 4.234375 -4.78125 C 4.085938 -4.851562 3.960938 -4.90625 3.859375 -4.9375 C 3.753906 -4.976562 3.675781 -5 3.625 -5 C 3.019531 -5 2.5 -4.753906 2.0625 -4.265625 C 1.632812 -3.773438 1.421875 -3.21875 1.421875 -2.59375 C 1.421875 -1.957031 1.53125 -1.484375 1.75 -1.171875 C 1.976562 -0.859375 2.316406 -0.703125 2.765625 -0.703125 C 3.128906 -0.703125 3.441406 -0.769531 3.703125 -0.90625 C 3.835938 -0.976562 4.03125 -1.125 4.28125 -1.34375 C 4.15625 -2.351562 4.09375 -3.113281 4.09375 -3.625 Z M 4.09375 -3.625 "/></g></g></g><g fill="#00bf63" fill-opacity="1"><g transform="translate(212.129366, 161.552349)"><g><path d="M 8.109375 0.484375 C 7.796875 0.484375 7.613281 0.316406 7.5625 -0.015625 C 7.488281 -0.441406 7.421875 -1.039062 7.359375 -1.8125 L 7.15625 -3.59375 C 7.125 -3.851562 7.0625 -4.113281 6.96875 -4.375 C 6.832031 -4.71875 6.6875 -4.890625 6.53125 -4.890625 C 6.394531 -4.890625 6.132812 -4.769531 5.75 -4.53125 C 5.375 -4.300781 5.128906 -4.117188 5.015625 -3.984375 C 5.015625 -3.628906 5.023438 -3.269531 5.046875 -2.90625 L 5.21875 -1.375 C 5.289062 -0.757812 5.328125 -0.257812 5.328125 0.125 C 5.328125 0.300781 5.273438 0.441406 5.171875 0.546875 C 5.066406 0.660156 4.929688 0.71875 4.765625 0.71875 C 4.597656 0.71875 4.460938 0.660156 4.359375 0.546875 C 4.253906 0.441406 4.203125 0.300781 4.203125 0.125 C 4.203125 -0.332031 4.15625 -1.015625 4.0625 -1.921875 C 3.96875 -2.835938 3.921875 -3.523438 3.921875 -3.984375 C 3.921875 -4.390625 3.863281 -4.707031 3.75 -4.9375 C 3.476562 -4.8125 3.203125 -4.613281 2.921875 -4.34375 L 2.25 -3.578125 C 2.1875 -3.484375 2.085938 -3.363281 1.953125 -3.21875 C 1.953125 -2.988281 1.929688 -2.644531 1.890625 -2.1875 C 1.847656 -1.738281 1.828125 -1.410156 1.828125 -1.203125 C 1.828125 -1.085938 1.84375 -0.925781 1.875 -0.71875 C 1.914062 -0.507812 1.9375 -0.359375 1.9375 -0.265625 C 1.9375 -0.109375 1.875 0.0195312 1.75 0.125 C 1.632812 0.238281 1.5 0.296875 1.34375 0.296875 C 0.914062 0.296875 0.703125 -0.195312 0.703125 -1.1875 C 0.703125 -1.414062 0.722656 -1.757812 0.765625 -2.21875 C 0.804688 -2.675781 0.828125 -3.019531 0.828125 -3.25 C 0.828125 -3.445312 0.804688 -3.75 0.765625 -4.15625 C 0.734375 -4.570312 0.71875 -4.882812 0.71875 -5.09375 C 0.71875 -5.957031 0.910156 -6.390625 1.296875 -6.390625 C 1.453125 -6.390625 1.59375 -6.320312 1.71875 -6.1875 C 1.84375 -6.0625 1.90625 -5.921875 1.90625 -5.765625 C 1.90625 -5.691406 1.894531 -5.578125 1.875 -5.421875 C 1.851562 -5.273438 1.84375 -5.160156 1.84375 -5.078125 L 1.859375 -4.46875 C 2.054688 -4.882812 2.347656 -5.257812 2.734375 -5.59375 C 3.117188 -5.925781 3.453125 -6.09375 3.734375 -6.09375 C 4.328125 -6.09375 4.738281 -5.789062 4.96875 -5.1875 C 5.175781 -5.46875 5.425781 -5.675781 5.71875 -5.8125 C 6.007812 -5.957031 6.347656 -6.03125 6.734375 -6.03125 C 7.367188 -6.03125 7.804688 -5.6875 8.046875 -5 C 8.085938 -4.851562 8.164062 -4.3125 8.28125 -3.375 C 8.382812 -2.71875 8.519531 -1.617188 8.6875 -0.078125 C 8.695312 0.078125 8.644531 0.207031 8.53125 0.3125 C 8.414062 0.425781 8.273438 0.484375 8.109375 0.484375 Z M 8.109375 0.484375 "/></g></g></g><g fill="#00bf63" fill-opacity="1"><g transform="translate(229.147943, 161.552349)"><g><path d="M 8.109375 0.484375 C 7.796875 0.484375 7.613281 0.316406 7.5625 -0.015625 C 7.488281 -0.441406 7.421875 -1.039062 7.359375 -1.8125 L 7.15625 -3.59375 C 7.125 -3.851562 7.0625 -4.113281 6.96875 -4.375 C 6.832031 -4.71875 6.6875 -4.890625 6.53125 -4.890625 C 6.394531 -4.890625 6.132812 -4.769531 5.75 -4.53125 C 5.375 -4.300781 5.128906 -4.117188 5.015625 -3.984375 C 5.015625 -3.628906 5.023438 -3.269531 5.046875 -2.90625 L 5.21875 -1.375 C 5.289062 -0.757812 5.328125 -0.257812 5.328125 0.125 C 5.328125 0.300781 5.273438 0.441406 5.171875 0.546875 C 5.066406 0.660156 4.929688 0.71875 4.765625 0.71875 C 4.597656 0.71875 4.460938 0.660156 4.359375 0.546875 C 4.253906 0.441406 4.203125 0.300781 4.203125 0.125 C 4.203125 -0.332031 4.15625 -1.015625 4.0625 -1.921875 C 3.96875 -2.835938 3.921875 -3.523438 3.921875 -3.984375 C 3.921875 -4.390625 3.863281 -4.707031 3.75 -4.9375 C 3.476562 -4.8125 3.203125 -4.613281 2.921875 -4.34375 L 2.25 -3.578125 C 2.1875 -3.484375 2.085938 -3.363281 1.953125 -3.21875 C 1.953125 -2.988281 1.929688 -2.644531 1.890625 -2.1875 C 1.847656 -1.738281 1.828125 -1.410156 1.828125 -1.203125 C 1.828125 -1.085938 1.84375 -0.925781 1.875 -0.71875 C 1.914062 -0.507812 1.9375 -0.359375 1.9375 -0.265625 C 1.9375 -0.109375 1.875 0.0195312 1.75 0.125 C 1.632812 0.238281 1.5 0.296875 1.34375 0.296875 C 0.914062 0.296875 0.703125 -0.195312 0.703125 -1.1875 C 0.703125 -1.414062 0.722656 -1.757812 0.765625 -2.21875 C 0.804688 -2.675781 0.828125 -3.019531 0.828125 -3.25 C 0.828125 -3.445312 0.804688 -3.75 0.765625 -4.15625 C 0.734375 -4.570312 0.71875 -4.882812 0.71875 -5.09375 C 0.71875 -5.957031 0.910156 -6.390625 1.296875 -6.390625 C 1.453125 -6.390625 1.59375 -6.320312 1.71875 -6.1875 C 1.84375 -6.0625 1.90625 -5.921875 1.90625 -5.765625 C 1.90625 -5.691406 1.894531 -5.578125 1.875 -5.421875 C 1.851562 -5.273438 1.84375 -5.160156 1.84375 -5.078125 L 1.859375 -4.46875 C 2.054688 -4.882812 2.347656 -5.257812 2.734375 -5.59375 C 3.117188 -5.925781 3.453125 -6.09375 3.734375 -6.09375 C 4.328125 -6.09375 4.738281 -5.789062 4.96875 -5.1875 C 5.175781 -5.46875 5.425781 -5.675781 5.71875 -5.8125 C 6.007812 -5.957031 6.347656 -6.03125 6.734375 -6.03125 C 7.367188 -6.03125 7.804688 -5.6875 8.046875 -5 C 8.085938 -4.851562 8.164062 -4.3125 8.28125 -3.375 C 8.382812 -2.71875 8.519531 -1.617188 8.6875 -0.078125 C 8.695312 0.078125 8.644531 0.207031 8.53125 0.3125 C 8.414062 0.425781 8.273438 0.484375 8.109375 0.484375 Z M 8.109375 0.484375 "/></g></g></g><g fill="#00bf63" fill-opacity="1"><g transform="translate(246.16652, 161.552349)"><g><path d="M 5.296875 0.375 C 5.222656 0.375 5.09375 0.289062 4.90625 0.125 C 4.726562 -0.03125 4.597656 -0.171875 4.515625 -0.296875 C 4.148438 -0.0976562 3.828125 0.0507812 3.546875 0.15625 C 3.265625 0.257812 3.03125 0.3125 2.84375 0.3125 C 1.9375 0.3125 1.28125 0.0546875 0.875 -0.453125 C 0.488281 -0.921875 0.296875 -1.648438 0.296875 -2.640625 C 0.296875 -3.566406 0.613281 -4.359375 1.25 -5.015625 C 1.894531 -5.679688 2.660156 -6.015625 3.546875 -6.015625 C 3.878906 -6.015625 4.253906 -5.925781 4.671875 -5.75 C 5.191406 -5.539062 5.453125 -5.285156 5.453125 -4.984375 C 5.453125 -4.878906 5.410156 -4.785156 5.328125 -4.703125 C 5.296875 -4.554688 5.269531 -4.316406 5.25 -3.984375 C 5.226562 -3.648438 5.210938 -3.222656 5.203125 -2.703125 C 5.203125 -2.222656 5.238281 -1.84375 5.3125 -1.5625 C 5.34375 -1.394531 5.460938 -1.054688 5.671875 -0.546875 C 5.691406 -0.484375 5.734375 -0.382812 5.796875 -0.25 L 5.828125 -0.15625 C 5.828125 0 5.773438 0.125 5.671875 0.21875 C 5.566406 0.320312 5.441406 0.375 5.296875 0.375 Z M 4.09375 -3.625 C 4.09375 -3.789062 4.101562 -3.96875 4.125 -4.15625 C 4.15625 -4.351562 4.191406 -4.5625 4.234375 -4.78125 C 4.085938 -4.851562 3.960938 -4.90625 3.859375 -4.9375 C 3.753906 -4.976562 3.675781 -5 3.625 -5 C 3.019531 -5 2.5 -4.753906 2.0625 -4.265625 C 1.632812 -3.773438 1.421875 -3.21875 1.421875 -2.59375 C 1.421875 -1.957031 1.53125 -1.484375 1.75 -1.171875 C 1.976562 -0.859375 2.316406 -0.703125 2.765625 -0.703125 C 3.128906 -0.703125 3.441406 -0.769531 3.703125 -0.90625 C 3.835938 -0.976562 4.03125 -1.125 4.28125 -1.34375 C 4.15625 -2.351562 4.09375 -3.113281 4.09375 -3.625 Z M 4.09375 -3.625 "/></g></g></g><g fill="#00bf63" fill-opacity="1"><g transform="translate(260.059383, 161.552349)"><g><path d="M 6.109375 -5.09375 C 6.054688 -4.519531 6.03125 -3.953125 6.03125 -3.390625 C 6.03125 -2.109375 6.09375 -1.144531 6.21875 -0.5 C 6.226562 -0.445312 6.234375 -0.398438 6.234375 -0.359375 C 6.234375 -0.203125 6.175781 -0.078125 6.0625 0.015625 C 5.957031 0.117188 5.832031 0.171875 5.6875 0.171875 C 5.445312 0.171875 5.273438 0 5.171875 -0.34375 C 4.890625 -0.144531 4.597656 0.00390625 4.296875 0.109375 C 4.003906 0.210938 3.695312 0.265625 3.375 0.265625 C 2.582031 0.265625 1.925781 0 1.40625 -0.53125 C 0.863281 -1.070312 0.59375 -1.765625 0.59375 -2.609375 C 0.59375 -3.640625 0.863281 -4.460938 1.40625 -5.078125 C 1.945312 -5.703125 2.65625 -6.015625 3.53125 -6.015625 C 3.96875 -6.015625 4.3125 -5.941406 4.5625 -5.796875 L 5.09375 -5.40625 C 5.144531 -7.019531 5.207031 -8.109375 5.28125 -8.671875 C 5.332031 -9.015625 5.507812 -9.1875 5.8125 -9.1875 C 6.164062 -9.1875 6.34375 -9 6.34375 -8.625 C 6.34375 -8.09375 6.265625 -6.914062 6.109375 -5.09375 Z M 3.546875 -4.9375 C 2.898438 -4.9375 2.414062 -4.742188 2.09375 -4.359375 C 1.769531 -3.984375 1.609375 -3.410156 1.609375 -2.640625 C 1.609375 -2.140625 1.785156 -1.710938 2.140625 -1.359375 C 2.492188 -1.003906 2.90625 -0.828125 3.375 -0.828125 C 3.695312 -0.828125 3.96875 -0.882812 4.1875 -1 C 4.320312 -1.070312 4.535156 -1.234375 4.828125 -1.484375 C 4.890625 -1.535156 4.945312 -1.59375 5 -1.65625 L 4.984375 -2.65625 L 4.984375 -3.328125 L 5 -4 C 4.851562 -4.3125 4.660156 -4.546875 4.421875 -4.703125 C 4.179688 -4.859375 3.890625 -4.9375 3.546875 -4.9375 Z M 3.546875 -4.9375 "/></g></g></g></svg>