<svg xmlns="http://www.w3.org/2000/svg" enable-background="new 0 0 450 450" viewBox="0 0 450 450"><path fill="#1a3a49" d="M10.273 391.582h429.508v4H10.273z" class="color1a3a49 svgShape"/><path fill="#eae8fe" d="M200.945 63.92v225.115c0 5.073 4.106 9.18 9.164 9.18h219.736c5.058 0 9.165-4.107 9.165-9.18V63.92H200.945z" class="coloreae8fe svgShape"/><path fill="#d2d4e9" d="M237.517 208.26h172.881v23.5H237.517zM237.517 242.444h172.881v23.5H237.517z" class="colord2d4e9 svgShape"/><path fill="#a7abc6" d="M439.01 71.917v-8.32c0-5.073-4.107-9.18-9.164-9.18H210.109c-5.058 0-9.164 4.107-9.164 9.18v8.32H439.01z" class="colora7abc6 svgShape"/><circle cx="211.728" cy="64.226" r="2.548" fill="#ffffff" class="colorfff svgShape"/><circle cx="220.174" cy="64.226" r="2.548" fill="#ffffff" class="colorfff svgShape"/><circle cx="228.619" cy="64.226" r="2.548" fill="#ffffff" class="colorfff svgShape"/><path fill="#ffffff" d="M271.019 89.744h97.916v97.916h-97.916z" class="colorfff svgShape"/><path fill="#06112d" d="M304.385 111.719a48.361 48.361 0 0 0-5.953 7.855c-.69 1.133-1.364 2.42-1.205 3.771.178 1.518 1.374 2.667 2.644 3.297 2.669 1.325 6.015.874 8.265-1.185 1.558-1.425 2.563-3.556 2.724-5.775.161-2.218-.523-4.497-1.855-6.175" class="color06112d svgShape"/><path fill="#3a6dc9" d="M281.901 187.66c6.413-11.287 12.364-22.234 17.311-24.714l5.988 24.714h-23.299z" class="color3a6dc9 svgShape"/><path fill="#1c5ab5" d="M289.859 187.66c2.089-7.146 3.473-12.43 3.473-12.43l3.212 12.43h-6.685z" class="color1c5ab5 svgShape"/><path fill="#3a6dc9" d="M346.23 187.66h-54.895c1.084-10.485 3.323-20.98 7.877-24.712 3.431-2.812 13.152-3.015 13.152-3.015l16.21 1.078s13.454.683 16.917 5.96c1.761 2.68 1.761 9.598 1.044 17.587-.09 1.019-.194 2.055-.306 3.102z" class="color3a6dc9 svgShape"/><path fill="#1c5ab5" d="M332.86 187.66c-.29-1.287-.473-2.411-.496-3.276-.167-6.362 3.844-13.066 3.844-13.066l10.327 13.24c-.09 1.019-.194 2.055-.306 3.102h-13.368z" class="color1c5ab5 svgShape"/><path fill="#fec3bd" d="M315.891 169.21c6.847-.327 12.927-7.97 12.937-8.201.253-5.5 1.414-18.192 2.556-22.123.253-.865-.488-1.679-1.276-1.406l-16.816 5.756c-.516.179-.817.771-.679 1.349.21.897.363 1.794.468 2.665.039.315.067.625.096.934.215 2.63.02 5.022-.244 6.774-.057.383-.129 1.05-.215 1.816v.005c-.205 1.968-.277 3.144-.353 3.433-.039.141-.343 9.183 3.526 8.998z" class="colorfec3bd svgShape"/><path fill="#f18b89" d="M312.718 156.774v.005s9.317-3.77 10.963-7.01c2.17-4.276-9.142-2.204-9.142-2.204s-.593.268-1.362.62c.215 2.628.02 5.02-.244 6.773-.057.383-.129 1.05-.215 1.816z" class="colorf18b89 svgShape"/><path fill="#fec3bd" d="M308.728 153.355c10.156 2.737 19.224-7.49 21.706-11.745v-.005c.438-.754.736-1.34.891-1.661.086-.178.215-.325.379-.435 1.311-.878 7.253-5.117 5.762-8.876-.974-2.448-2.639-2.737-3.865-2.549-.72.11-1.349-.523-1.252-1.246 2.641-19.633-18.984-18.783-24.934-9.922-.263.389-.53.866-.798 1.422-3.872 7.918-8.8 32.076 2.111 35.017z" class="colorfec3bd svgShape"/><ellipse cx="317.418" cy="132.359" fill="#06112d" rx="1.863" ry="1.242" transform="rotate(-87.377 317.418 132.358)" class="color06112d svgShape"/><path fill="#06112d" d="M319.305 129.752a.498.498 0 0 1-.311-.109c-1.825-1.456-2.865-.609-2.908-.572a.504.504 0 0 1-.703-.05.496.496 0 0 1 .038-.698c.069-.061 1.683-1.465 4.196.538a.5.5 0 0 1-.312.891z" class="color06112d svgShape"/><ellipse cx="306.924" cy="132.359" fill="#06112d" rx="1.863" ry="1.242" transform="rotate(-87.377 306.924 132.358)" class="color06112d svgShape"/><path fill="#06112d" d="M308.811 129.752a.498.498 0 0 1-.311-.109c-1.826-1.456-2.865-.609-2.909-.572a.504.504 0 0 1-.702-.05.496.496 0 0 1 .038-.698c.069-.061 1.683-1.465 4.196.538a.5.5 0 0 1-.312.891z" class="color06112d svgShape"/><path fill="#f18b89" d="M310.037 142.26a.496.496 0 0 1-.332-.127 2.467 2.467 0 0 1-.85-1.779c-.02-.665.235-1.3.72-1.787a5.73 5.73 0 0 1 .572-.48c.108-.083.217-.166.318-.252.82-.696 1.14-1.612 1.265-2.26.17-.871.113-1.794.059-2.686a.5.5 0 0 1 .468-.53.505.505 0 0 1 .53.469c.058.954.119 1.942-.075 2.939-.223 1.152-.776 2.13-1.6 2.83a8.607 8.607 0 0 1-.357.283c-.165.127-.33.252-.472.394-.288.29-.44.662-.43 1.05.013.4.195.777.516 1.062a.5.5 0 0 1-.332.874zM313.133 147.416c-.058 0-.116-.001-.174-.004a.5.5 0 0 1-.482-.518c.01-.275.24-.512.519-.48 1.38.038 2.752-.654 3.514-1.795a.5.5 0 0 1 .832.555c-.92 1.375-2.556 2.242-4.209 2.242z" class="colorf18b89 svgShape"/><path fill="#f18b89" d="M313.133 147.416c-.058 0-.116-.001-.174-.004a.5.5 0 0 1-.482-.518c.01-.275.24-.512.519-.48 1.38.038 2.752-.654 3.514-1.795a.5.5 0 0 1 .832.555c-.92 1.375-2.556 2.242-4.209 2.242z" class="colorf18b89 svgShape"/><path fill="#3a6dc9" d="M335.352 187.66c-.687-1.97-1.116-3.78-1.146-5.285-.335-16.84 9.979-16.84 9.979-16.84 2.39 1.687 11.208 11.141 18.22 22.125h-27.053z" class="color3a6dc9 svgShape"/><path fill="#06112d" d="M328.858 131.045a1.121 1.121 0 0 0 2.173.354l.868-2.364c.106-.29.326-.528.613-.645 1.047-.428 3.634-1.073 4.954 2.243 1.491 3.759-4.45 7.998-5.762 8.876-.164.11-.293.257-.379.435-.155.32-.453.907-.89 1.666l-.953 3.723c-.271 1.062-.255 9.796-.255 9.796 3.719-4.866 6.956-10.958 9.86-16.347 1.763-3.269 3.403-6.68 4.39-10.274.41-1.493.48-2.948.707-4.458.367-2.433.844-4.571-1.09-6.6-.794-.834-1.907-1.554-2.033-2.698-.196-1.787 2.195-3.39 1.415-5.009-.433-.898-1.59-1.117-2.581-1.225l-8.033-.877c1.005-.547 1.311-1.962.843-3.006-.47-1.043-1.534-1.722-2.642-2.007-1.109-.286-2.272-.234-3.415-.18l-5.17.24c-.683.033-1.391.071-1.999.385s-1.087.987-.954 1.658c.865-.797.489-2.344-.437-3.07-.927-.724-2.17-.852-3.342-.954-2.517-.217-5.11-.427-7.518.335-2.408.762-4.61 2.748-4.829 5.264-1.816-.744-4.01-.164-5.454 1.165-1.443 1.33-2.193 3.293-2.353 5.249-.15 1.85.218 3.797 1.325 5.288 1.603 2.159 4.507 3.023 7.19 2.85 2.683-.175 5.22-1.229 7.7-2.269-.648 1.627.847 3.454 2.55 3.863 1.702.408 3.467-.15 5.15-.633 1.684-.481 3.534-.881 5.142-.188 1.095.472 1.91 1.362 2.786 2.139.688.61 1.65 1.156 2.055 2.017.686 1.458.322 3.684.368 5.258z" class="color06112d svgShape"/><path fill="#ffffff" d="M245.304 216.844h64v6.333h-64zM333.97 216.844h21.333v6.333H333.97zM277.887 254.19a3.62 3.62 0 1 1-7.24 0c0-1.99 1.62-3.61 3.62-3.61s3.62 1.62 3.62 3.61zM297.512 254.19a3.62 3.62 0 1 1-7.24 0c0-1.99 1.62-3.61 3.62-3.61s3.62 1.62 3.62 3.61zM317.137 254.19a3.62 3.62 0 1 1-7.24 0c0-1.99 1.62-3.61 3.62-3.61s3.62 1.62 3.62 3.61zM336.762 254.19a3.62 3.62 0 1 1-7.24 0c0-1.99 1.62-3.61 3.62-3.61s3.62 1.62 3.62 3.61zM356.387 254.19a3.62 3.62 0 1 1-7.24 0c0-1.99 1.62-3.61 3.62-3.61s3.62 1.62 3.62 3.61z" class="colorfff svgShape"/><path fill="#fec3bd" d="M224.723 248.18c-2.643 4.379-30.082 17.424-30.082 17.424l-12.554-16.729s10.675-20.267 14.636-20.431c3.917-.153.168 10.482.168 10.482 1.776-1.563 14.999-13.167 16.544-8.91.564 1.547-1.235 5.025-2.282 6.223 3.99-2.615 10.375-5.28 11.25-3.236 1.22 2.844-3.709 5.9-5.48 6.889 1.843-.945 7.27-3.448 7.89-.422.377 1.841-3.714 4.394-5.5 5.729 1.635-.49 7.137.13 5.41 2.981z" class="colorfec3bd svgShape"/><path fill="#0c8ff9" d="M198.034 265.658s-24.037 40.23-46.658 44.558c-1.16.228-2.3.337-3.396.337-12.943-.033-30.747-17.38-44.406-33.373-11.674-13.66-20.332-26.332-20.332-26.332l24.823-39.198c9.418 8.367 25.88 35.822 43.311 57.767l30.246-22.394 16.412 18.635z" class="color0c8ff9 svgShape"/><path fill="#0e6bb9" d="M151.376 310.216c-1.16.228-2.3.337-3.396.337-12.943-.033-30.747-17.38-44.406-33.373 3.471-9.266 14.375-40.078 14.375-40.078s13.811 57.98 33.427 73.114z" class="color0e6bb9 svgShape"/><path fill="#11153a" d="m123.67 391.42-.508-35.312-51.602 2.225 2.961 33.087z" class="color11153a svgShape"/><path fill="#070d2b" d="m90.976 391.42 3.006-33.087H71.56l2.961 33.087z" class="color070d2b svgShape"/><path fill="#11153a" d="m85.71 391.42 3.005-33.082H30.762v33.082z" class="color11153a svgShape"/><path fill="#0c8ff9" d="M28.796 352.285c.521-14.097.996-31.484.452-37.692-1.182-13.507-6.475-33.187-9.43-51.72-2.698-16.843-3.451-32.735 2.572-42.187 5.583-8.769 34.82-14.33 34.82-14.33l26.093-1.557s22.685.388 29.059 11.509c9.785 17.072 9.535 74.7 9.535 74.7s4.43 71.517 5.044 80.528H27.973c.128-2.49.487-10.193.823-19.25z" class="color0c8ff9 svgShape"/><path fill="#06112d" d="M102.187 117.574s4.024 21.858-9.41 30.014c-10.465 6.354-12.01-14.698-12.18-24.314-.032-1.778 2.062-2.743 3.4-1.572l9.02 7.894" class="color06112d svgShape"/><path fill="#fec3bd" d="M74.791 223.355c-12.834-.598-24.23-14.576-24.248-14.998-.475-10.056-2.65-33.268-4.791-40.455-.475-1.583.913-3.07 2.391-2.571l31.52 10.526c.968.326 1.533 1.41 1.273 2.466a44.165 44.165 0 0 0-.878 4.874 58.327 58.327 0 0 0-.18 1.709c-.402 4.807-.035 9.183.458 12.387.107.7.242 1.92.403 3.32v.01c.385 3.599.52 5.75.663 6.277.072.26.642 16.793-6.61 16.455z" class="colorfec3bd svgShape"/><path fill="#f18b89" d="M80.739 200.613v.01s-17.465-6.894-20.548-12.82c-4.07-7.82 17.135-4.03 17.135-4.03s1.11.49 2.553 1.133c-.403 4.807-.036 9.183.457 12.387.107.7.242 1.92.403 3.32z" class="colorf18b89 svgShape"/><path fill="#fec3bd" d="M87.18 194.36c-18.573 5.006-35.156-13.696-39.694-21.478v-.009a46.965 46.965 0 0 1-1.63-3.037 1.998 1.998 0 0 0-.692-.795c-2.398-1.607-13.264-9.358-10.537-16.233 1.782-4.475 4.825-5.005 7.068-4.66 1.317.202 2.466-.957 2.289-2.278-4.83-35.905 34.717-34.35 45.598-18.145.48.71.969 1.584 1.458 2.6 7.082 14.48 16.092 58.658-3.86 64.035z" class="colorfec3bd svgShape"/><path fill="#06112d" d="M99.494 132.155c-4.638 15.353-42.7-5.12-41.098 1.76 1.177 5.086-3.582 6.847-6.143 7.42a2.036 2.036 0 0 0-1.583 1.935l-.302 10.293a2.05 2.05 0 0 1-3.973.646l-1.587-4.322a2.02 2.02 0 0 0-1.121-1.18c-1.915-.782-6.646-1.962-9.06 4.101-2.727 6.875 8.139 14.626 10.537 16.233.3.2.535.47.693.795.284.586.828 1.659 1.629 3.037v.01l1.74 6.809c.497 1.94.715 16.315.715 16.315s-29.206-38.214-27.532-57.018c2.317-26.027 15.99-13.71 18.072-23.786 2.082-10.076 17.752-14.077 27.99-11.995 10.23 2.083 27.588 3.033 31.743 8.157 3.665 4.51 1.567 13.22-.72 20.79z" class="color06112d svgShape"/><ellipse cx="71.288" cy="155.965" fill="#06112d" rx="2.271" ry="3.406" transform="rotate(-2.623 71.288 155.964)" class="color06112d svgShape"/><path fill="#06112d" d="M67.838 150.784a.5.5 0 0 1-.312-.891c4.328-3.45 7.023-1.102 7.136-1a.5.5 0 0 1-.667.744c-.1-.086-2.221-1.849-5.846 1.038a.498.498 0 0 1-.311.109z" class="color06112d svgShape"/><ellipse cx="90.479" cy="155.965" fill="#06112d" rx="2.271" ry="3.406" transform="rotate(-2.623 90.48 155.964)" class="color06112d svgShape"/><path fill="#06112d" d="M87.029 150.784a.5.5 0 0 1-.312-.891c4.327-3.448 7.023-1.101 7.136-1a.5.5 0 0 1-.667.745c-.09-.077-2.212-1.861-5.846 1.037a.498.498 0 0 1-.311.109z" class="color06112d svgShape"/><path fill="#f18b89" d="M84.787 173.657a.499.499 0 0 1-.332-.874c.672-.598 1.056-1.393 1.081-2.238.025-.825-.297-1.616-.907-2.228-.264-.265-.577-.504-.908-.757a15.88 15.88 0 0 1-.635-.503c-1.431-1.218-2.395-2.925-2.785-4.94-.343-1.766-.235-3.547-.13-5.269a.507.507 0 0 1 .53-.469.5.5 0 0 1 .469.53c-.102 1.66-.206 3.376.112 5.018.347 1.789 1.195 3.3 2.451 4.368.191.162.394.316.596.47.342.263.696.534 1.008.846.806.809 1.232 1.861 1.199 2.964-.033 1.123-.536 2.172-1.416 2.955a.497.497 0 0 1-.333.127zM79.124 183.086c-2.887 0-5.746-1.514-7.352-3.915a.5.5 0 1 1 .831-.556c1.474 2.204 4.139 3.56 6.789 3.466.273-.023.508.205.518.48s-.205.508-.481.519a7.952 7.952 0 0 1-.305.006z" class="colorf18b89 svgShape"/><path fill="#0e6bb9" d="m104.969 317.395-3.13 30.146-20.431 2.612-52.612 2.132c.521-14.097.996-31.484.452-37.692-1.182-13.507-6.475-33.187-9.43-51.72l23.214-27.013s6.649 13.02 8.966 22.634c2.316 9.603 3.938 42.731 3.938 42.731l49.033 16.17z" class="color0e6bb9 svgShape"/><path fill="#070d2b" d="M117.467 333.633h55.316v10.4h-62.867v-.875c0-5.26 3.38-9.525 7.55-9.525z" class="color070d2b svgShape"/><path fill="#070d2b" d="M180.621 344.033h-36.777l10.56-65.558c1.611-2.669 3.9-4.647 6.592-4.647h19.625v70.205z" class="color070d2b svgShape"/><path fill="#11153a" d="M150.24 344.033h73.207a9.721 9.721 0 0 0 9.62-8.321l9.13-55.673c.483-3.266-2.059-6.211-5.372-6.211h-70.653a5.433 5.433 0 0 0-5.372 4.647l-10.56 65.558z" class="color11153a svgShape"/><path fill="#070d2b" d="M193.774 321.18c4.51 0 8.834-3.669 9.662-8.178.817-4.52-2.174-8.178-6.694-8.178-4.51 0-8.834 3.658-9.663 8.178-.816 4.52 2.174 8.179 6.695 8.179z" class="color070d2b svgShape"/><path fill="#fec3bd" d="M140.785 341.94c-1.174 4.178-6.905 4.06-6.905 4.06s4.694 2.105-1.977 4.26c-9.212 2.964-29.88-5.1-29.88-5.1l2.497-23.971s14.603-4.526 17.004-1.323-5.518 7.083-5.518 7.083 21.496-2.718 21.491 3.048c-.002 2.83-6.583 2.955-8.925 2.916 3.024.138 12.803-.198 11.317 3.598-.658 1.68-3.123 2.342-5.229 2.708 4.112-.149 6.974-.3 6.125 2.721z" class="colorfec3bd svgShape"/><path fill="#0c8ff9" d="M17.797 332.215c11.585 11.484 84.042 15.326 84.042 15.326l3.13-30.146-55.192-13.5s.624-44.356-2.927-58.454c-5.167-20.538-21.26-27.96-21.26-27.96-1.57 1.82-10.65 7.009-12.277 25.046-2.775 30.766-6.968 78.335 4.484 89.688z" class="color0c8ff9 svgShape"/><path fill="#37c092" d="M370.095 344.293c-2.138 2.492-1.445 6.638-.167 9.66.755 1.796 1.937 3.612 1.04 5.583-.38.835-1.086 1.486-1.925 1.862a4.648 4.648 0 0 1-2.188.396 5.287 5.287 0 0 1-.572-.058c-1.194-.196-2.334-.789-3.26-1.587-1.161-.993-2.234-2.542-2.923-4.2-1.16-2.805-3.449-4.997-6.35-5.895-.113-.037-.23-.07-.343-.108a23.092 23.092 0 0 1-9.381-5.841c-1.716-1.77-3.223-4.037-2.701-6.58.28-1.357 1.244-2.5 2.584-2.847 1.65-.426 2.818.58 3.87 1.549.906.835 1.88 1.716 3.194 1.707.635 0 1.257-.296 1.587-.839.542-.902.02-1.841-.568-2.563a10.548 10.548 0 0 0-5.403-3.474c-2.216-.589-4.65-.46-6.504-2.08-.84-.734-1.303-1.84-1.073-2.93.518-2.46 4.008-2.188 4.48-4.71.167-.889-.121-1.79-.677-2.509-1.002-1.294-2.58-1.845-4.112-2.292-1.119-.33-2.288-.643-3.14-1.49a2.723 2.723 0 0 1-.68-1.081c-.576-1.796 1.106-2.956 2.626-2.936 1.185.017 2.288.568 3.34 1.111-2.025-2.806-4.05-5.607-6.075-8.408-.672-.931-1.36-1.9-1.595-3.027-.233-1.123.113-2.455 1.115-3.019.785-.447 1.795-.317 2.601.096.802.418 1.44 1.086 2.067 1.741l8.709 9.135c-.363-1.411-.288-2.76-.096-4.204.192-1.445 1.085-2.893 2.484-3.294 1.257-.363 2.634.2 3.557 1.123s1.461 2.15 1.908 3.377c1.595 4.376 1.578 8.927 1.21 13.57 1.408-2.535 2.088-5.545 4.706-6.785 1.374-.651 2.634 1.565 3.152 2.993.522 1.424.53 2.977.535 4.493l.025 10.75c1.302-1.574 2.663-3.198 4.688-3.832.919-.288 1.916-.305 2.806.062 2.137.881 2.463 3.248 2.338 5.303a20.632 20.632 0 0 1-4.89 12.078z" class="color37c092 svgShape"/><path fill="#238a6f" d="M366.855 361.794a5.287 5.287 0 0 1-.572-.058c.94-15.214-6.972-30.707-13.807-41.057-7.465-11.31-15.289-19.084-15.364-19.16a.29.29 0 0 1-.004-.408.286.286 0 0 1 .41 0c.078.075 7.94 7.89 15.443 19.25 6.884 10.43 14.858 26.049 13.894 41.433z" class="color238a6f svgShape"/><path fill="#238a6f" d="M352.374 319.925a.288.288 0 0 1-.478-.268c.014-.071 1.371-7.228.332-10.334a.288.288 0 1 1 .547-.184c1.087 3.25-.255 10.328-.313 10.627a.287.287 0 0 1-.088.159z" class="color238a6f svgShape"/><path fill="#238a6f" d="M352.373 319.925a.289.289 0 0 1-.369.016c-.056-.043-5.675-4.304-9.01-3.874a.288.288 0 1 1-.073-.572c3.569-.46 9.196 3.806 9.434 3.988a.289.289 0 0 1 .018.442zM359.557 332.192a.288.288 0 0 1-.459-.329c.036-.082 3.59-8.276 2.26-12.525a.288.288 0 1 1 .55-.172c1.395 4.454-2.13 12.585-2.281 12.929a.286.286 0 0 1-.07.097zM358.884 330.866a.289.289 0 0 1-.34.035c-.08-.047-8.045-4.701-12.469-3.872a.289.289 0 0 1-.106-.567c4.636-.87 12.533 3.745 12.867 3.942a.289.289 0 0 1 .048.462zM363.67 341.93a.289.289 0 0 1-.395-.421l.056-.054c2.212-2.139 6.103-6.44 7.31-11.225a.288.288 0 0 1 .56.141c-1.243 4.924-5.213 9.318-7.469 11.498l-.055.054a.334.334 0 0 1-.007.006zM365.752 349.393a.289.289 0 0 1-.363.02c-.117-.083-11.784-8.414-17.768-7.405a.288.288 0 1 1-.096-.57c6.221-1.048 17.715 7.158 18.201 7.507a.288.288 0 0 1 .026.448z" class="color238a6f svgShape"/><path fill="#27aa7b" d="M375.717 343.175c-.482-3.353.463-6.755 2.737-9.265l.267-.299a25.716 25.716 0 0 0 5.673-10.934c.641-2.672.797-5.705-1.148-7.846-1.038-1.142-2.617-1.69-4.098-1.26-1.825.528-2.369 2.159-2.829 3.684-.396 1.317-.827 2.715-2.091 3.455-.612.359-1.374.43-1.999.096-1.034-.556-1.067-1.755-.91-2.78a11.75 11.75 0 0 1 3.203-6.403c1.79-1.824 4.198-3.083 5.055-5.693.387-1.18.203-2.504-.637-3.418-1.896-2.064-5.086.178-6.974-1.97-.666-.758-.902-1.788-.778-2.788.223-1.813 1.426-3.238 2.639-4.54.889-.953 1.828-1.915 2.167-3.211a3.01 3.01 0 0 0 .035-1.423c-.466-2.051-2.741-2.207-4.187-1.324-1.127.688-1.869 1.845-2.572 2.963l1.045-11.517c.116-1.275.226-2.595-.188-3.807s-1.506-2.29-2.786-2.264c-1.009.02-1.906.717-2.439 1.573-.533.856-.768 1.86-.994 2.842l-3.157 13.711c-.453-1.559-1.292-2.81-2.299-4.084-1.006-1.274-2.686-2.156-4.257-1.747-1.407.367-2.41 1.69-2.77 3.1-.359 1.407-.179 2.895.089 4.323.957 5.102 3.562 9.456 6.555 13.698-2.793-1.628-5.154-4.13-8.372-3.829-1.684.158-1.634 3-1.321 4.662s1.185 3.157 2.045 4.614l6.088 10.323c-2.144-.77-4.374-1.554-6.675-1.011-1.044.246-2.011.798-2.657 1.655-1.55 2.06-.514 4.517.773 6.415a23.024 23.024 0 0 0 11.558 8.802c3.463 1.176 5.155 5.546 5.652 9.17.295 2.148.193 4.563 2.173 5.941.841.586 1.886.81 2.904.693 2.532-.292 4.293-2.345 5.066-4.618.548-1.612.698-3.71.414-5.689z" class="color27aa7b svgShape"/><path fill="#238a6f" d="M372.958 353.044a.32.32 0 0 0 .33-.498c-9.745-14.08-10.987-33.616-10.313-47.527.73-15.092 3.812-26.991 3.843-27.11a.322.322 0 0 0-.623-.163c-.03.12-3.128 12.084-3.863 27.242-.679 14.01.58 33.697 10.426 47.924.05.07.122.116.2.132z" class="color238a6f svgShape"/><path fill="#238a6f" d="M362.731 320.083a.321.321 0 0 0 .253-.576c-.081-.058-8.147-5.896-9.288-10.727a.321.321 0 1 0-.625.148c1.195 5.065 9.198 10.857 9.538 11.101a.32.32 0 0 0 .122.054zM362.622 318.428a.322.322 0 0 0 .347-.16c.05-.09 5.041-9.08 9.755-10.8a.322.322 0 0 0-.22-.605c-4.94 1.803-9.89 10.717-10.099 11.095a.322.322 0 0 0 .217.47zM364.323 331.759a.322.322 0 0 0 .14-.628l-.085-.02c-3.337-.793-9.513-2.706-13.392-6.608a.322.322 0 0 0-.456.454c3.99 4.015 10.296 5.97 13.699 6.78l.084.02c.003 0 .006 0 .01.002zM366.57 340.1a.322.322 0 0 0 .36-.187c.064-.147 6.515-14.768 12.827-17.203a.322.322 0 1 0-.231-.6c-6.562 2.531-12.919 16.934-13.186 17.546a.322.322 0 0 0 .23.443z" class="color238a6f svgShape"/><path fill="#37c092" d="M399.959 323.25c-.576 1.403-1.616 2.556-2.635 3.679-2.405 2.655-4.814 5.31-7.223 7.966 2.025-.288 4.125-.572 6.05.321.873.41 1.62 1.07 2.033 1.938.986 2.091-.367 4.062-1.845 5.494a20.676 20.676 0 0 1-11.753 5.636c-3.252.4-5.536 3.933-6.63 7.027-.647 1.833-.997 3.974-2.985 4.826-.847.359-1.808.367-2.68.08a4.591 4.591 0 0 1-1.883-1.178 4.151 4.151 0 0 1-.384-.434c-.752-.948-1.194-2.155-1.345-3.365-.187-1.516.063-3.386.673-5.073 1.03-2.856.818-6.016-.723-8.634-.062-.104-.12-.209-.18-.313a23.053 23.053 0 0 1-2.997-10.634c-.08-2.463.334-5.156 2.434-6.684 1.115-.814 2.605-1.01 3.829-.363 1.507.793 1.686 2.325 1.812 3.749.112 1.227.238 2.534 1.21 3.415.472.426 1.132.626 1.741.447 1.007-.3 1.257-1.349 1.303-2.275a10.547 10.547 0 0 0-1.65-6.209c-1.243-1.924-3.13-3.47-3.406-5.92-.13-1.102.276-2.234 1.177-2.885 2.042-1.47 4.438 1.082 6.488-.463.718-.547 1.115-1.407 1.186-2.309.134-1.633-.664-3.102-1.49-4.467-.61-.998-1.261-2.013-1.324-3.215-.02-.43.05-.864.23-1.257.78-1.716 2.81-1.44 3.916-.4.868.81 1.307 1.957 1.724 3.068.388-3.436.78-6.872 1.173-10.308.13-1.14.272-2.321.856-3.307.585-.99 1.737-1.74 2.86-1.486.881.205 1.54.977 1.854 1.829.313.847.338 1.77.359 2.676.096 4.204.188 8.413.284 12.617.68-1.286 1.645-2.234 2.76-3.169 1.114-.94 2.75-1.407 4.058-.764 1.169.58 1.807 1.925 1.87 3.227.058 1.303-.367 2.576-.864 3.783-1.766 4.308-4.847 7.657-8.246 10.842 2.747-.922 5.277-2.693 8.05-1.845 1.448.447.889 2.935.313 4.338z" class="color37c092 svgShape"/><path fill="#238a6f" d="M388.043 319.05c-1.937 12.35-6.567 29.268-17.635 39.989a4.151 4.151 0 0 1-.384-.434c10.943-10.609 15.527-27.393 17.447-39.642 2.1-13.39 1.553-24.403 1.55-24.512a.29.29 0 0 1 .575-.033c.004.113.556 11.185-1.553 24.633z" class="color238a6f svgShape"/><path fill="#238a6f" d="M387.905 318.335a.288.288 0 0 1-.173-.52c.059-.043 5.883-4.419 7.206-7.415a.288.288 0 1 1 .528.233c-1.385 3.134-7.144 7.462-7.389 7.645a.287.287 0 0 1-.172.057z" class="color238a6f svgShape"/><path fill="#238a6f" d="M387.904 318.335a.289.289 0 0 1-.283-.237c-.013-.07-1.296-7.004-4.05-8.932a.288.288 0 1 1 .33-.472c2.948 2.063 4.234 9.007 4.288 9.301a.289.289 0 0 1-.285.34zM384.952 332.24a.288.288 0 0 1-.118-.552c.082-.036 8.228-3.7 10.107-7.736a.288.288 0 1 1 .523.244c-1.97 4.232-10.052 7.867-10.395 8.02a.286.286 0 0 1-.117.024zM385.348 330.807a.289.289 0 0 1-.276-.204c-.027-.089-2.78-8.893-6.607-11.26a.289.289 0 0 1 .303-.49c4.012 2.48 6.741 11.21 6.855 11.58a.289.289 0 0 1-.275.374zM381.433 342.208a.289.289 0 0 1-.009-.577l.078-.002c3.076-.09 8.849-.65 12.964-3.373a.289.289 0 0 1 .318.481c-4.234 2.803-10.128 3.376-13.265 3.468l-.077.003h-.009zM377.944 349.127a.289.289 0 0 1-.281-.23c-.03-.14-3.042-14.156-8.145-17.441a.288.288 0 1 1 .312-.485c5.305 3.415 8.273 17.221 8.397 17.808a.288.288 0 0 1-.283.348z" class="color238a6f svgShape"/><path fill="#fcc283" d="M372.215 391.433h-5.7c-8.678 0-15.712-7.035-15.712-15.713v-20.018a5.535 5.535 0 0 1 5.535-5.535h26.055a5.535 5.535 0 0 1 5.535 5.535v20.018c0 8.678-7.035 15.713-15.713 15.713z" class="colorfcc283 svgShape"/><path fill="#fe8b70" d="M387.928 355.876v-2.654a3.055 3.055 0 0 0-3.055-3.055h-31.015a3.055 3.055 0 0 0-3.055 3.055v2.654h37.125z" class="colorfe8b70 svgShape"/><circle cx="150.241" cy="113.104" r="20.748" fill="#f9dae0" class="colorf9dae0 svgShape"/><path fill="#ffffff" d="M150.24 128.313c-8.385 0-15.207-6.823-15.207-15.208 0-8.387 6.822-15.209 15.208-15.209s15.208 6.822 15.208 15.209c0 8.385-6.822 15.208-15.208 15.208zm0-28.417c-7.282 0-13.207 5.925-13.207 13.209 0 7.282 5.925 13.208 13.208 13.208s13.208-5.926 13.208-13.208c0-7.284-5.925-13.209-13.208-13.209z" class="colorfff svgShape"/><path fill="#ffffff" d="M150.24 128.313c-4.928 0-8.79-6.68-8.79-15.208 0-8.529 3.862-15.209 8.79-15.209s8.791 6.68 8.791 15.209c0 8.527-3.861 15.208-8.79 15.208zm0-28.417c-3.68 0-6.79 6.049-6.79 13.209s3.11 13.208 6.79 13.208 6.791-6.049 6.791-13.208-3.11-13.209-6.79-13.209z" class="colorfff svgShape"/><path fill="#ffffff" d="M149.241 98.896h2v28.417h-2z" class="colorfff svgShape"/><path fill="#ffffff" d="M136.442 108.388h27.515v2h-27.515zM136.442 115.82h27.515v2h-27.515z" class="colorfff svgShape"/><circle cx="296.875" cy="338.208" r="16.642" fill="#f9dae0" class="colorf9dae0 svgShape"/><path fill="#f7b3c2" d="m302.571 338.688-6.7 5.01c-.789.59-1.913.026-1.913-.96v-10.01a1.197 1.197 0 0 1 1.913-.959l6.7 5.001a1.197 1.197 0 0 1 0 1.918z" class="colorf7b3c2 svgShape"/></svg>