<svg xmlns="http://www.w3.org/2000/svg" enable-background="new 0 0 350 350" viewBox="0 0 350 350"><path fill="#feb9a5" d="M128.5,90.6l0.1,4.5c0,1.5-13.8,1.5-13.8,0v-4.5L128.5,90.6z" class="colorfeb9a5 svgShape"/><path fill="#feb9a5" d="M128.5,90.6l-13.7,0c0,0,0-0.9,0-0.9c0,0-0.2,0.1-0.4,0.1c0,0,0,0,0,0c-0.7,0.1-2.1-0.2-2.9-2.9           c-1.2-3.7-5.6-9.8-5.8-14.9c-0.1-5.1,1.3-20,21.1-17.6c0,0,7.6,2.5,12,1.4c0,0,1.1,3.2-0.3,5.3c-0.2,0.3-0.5,0.6-0.8,0.8           c0,0,0,0,0,0s9.2,25.8-1.4,28.8C134.8,91.2,133.8,90.9,128.5,90.6z" class="colorfeb9a5 svgShape"/><path fill="#15142b" d="M138.5,61.1c-0.4,0.4-0.7,0.7-0.8,0.8c0,0,0,0,0,0s-6.9,1.5-4.7,4.7c1.9,2.6,1.3,5.9-0.8,7.7           c-1.6,1.3-1.1,7-1.1,7l-1.6,0.6c-1.9-10-7.9-3-7.2,4.3c0.4,4.6-7.7,3.4-7.9,3.5c0,0,0,0,0,0c-0.7,0.1-2.1-0.2-2.9-2.9           c-1.2-3.7-5.6-9.8-5.8-14.9c-0.1-5.1,1.3-20,21.1-17.6c0,0,6,1.4,12.1-0.2c1.1-0.3,2.1,0.6,2,1.7           C140.6,57.6,140.1,59.8,138.5,61.1z" class="color15142b svgShape"/><polygon fill="#eda594" points="128.5 90.6 128.5 93.2 120.2 90.6" class="coloreda594 svgShape"/><path fill="#15142b" d="M137.6 68.7c.1.6-.2 1-.7 1.1-.4.1-.9-.3-.9-.9-.1-.6.2-1.1.7-1.1C137.1 67.7 137.5 68.1 137.6 68.7zM135 67.1c-.1-.1-.1-.2-.1-.3 0 0 1.2-1.7 3.2-.6.1.1.2.2.1.3-.1.1-.2.2-.3.1-1.6-.9-2.6.4-2.6.5C135.3 67.1 135.1 67.2 135 67.1zM134.3 79.3c0-.1 0-.3.2-.3.1 0 .3 0 .3.2 0 .1.5 1.6 2.5 1.2.1 0 .3.1.3.2 0 .1-.1.3-.2.3C135.8 81.2 134.6 80.4 134.3 79.3z" class="color15142b svgShape"/><path fill="#feb9a5" d="M139.7,69.5c0,0,4.8,8.5,0.6,8.7L139.7,69.5z" class="colorfeb9a5 svgShape"/><path fill="#a6b6f8" d="M175.7,148.3c-1.7,0-2.7-1.4-2.3-3.1l9.5-36.7c0.4-1.7,2.2-3.1,3.9-3.1h19.4c1.7,0,2.7,1.4,2.3,3.1            l-9.5,36.7c-0.4,1.7-2.2,3.1-3.9,3.1H175.7z" class="colora6b6f8 svgShape"/><path fill="#ccd7f6" d="M173,148.3c-1.7,0-2.7-1.4-2.3-3.1l9.5-36.7c0.4-1.7,2.2-3.1,3.9-3.1h19.4c1.7,0,2.7,1.4,2.3,3.1            l-9.5,36.7c-0.4,1.7-2.2,3.1-3.9,3.1H173z" class="colorccd7f6 svgShape"/><path fill="#ffffff" d="M173.2,147.4c-1.2,0-1.9-1-1.6-2.2l9.5-36.7c0.3-1.2,1.5-2.2,2.8-2.2h19.4c1.2,0,1.9,1,1.6,2.2            l-9.5,36.7c-0.3,1.2-1.5,2.2-2.8,2.2H173.2z" class="colorfff svgShape"/><ellipse cx="188.2" cy="126.9" fill="#a6b6f8" rx="10.2" ry="7.9" transform="rotate(-41.323 188.21 126.86)" class="colora6b6f8 svgShape"/><path fill="#ffffff" d="M191.3 123.7c-.3 1.2-1.5 2.1-2.7 2.1s-1.9-1-1.6-2.1c.3-1.2 1.5-2.1 2.7-2.1C190.9 121.5 191.6 122.5 191.3 123.7zM191.3 131.5h-8.3c-.3 0-.4-.2-.3-.5.9-2.3 3.3-4.1 5.7-4.1 2.4 0 3.9 1.8 3.6 4.1C191.8 131.2 191.5 131.5 191.3 131.5z" class="colorfff svgShape"/><path fill="#feb9a5" d="M107.6 152.4v16.1c-7.6 0-14-2.8-18.5-8.1-6.7-7.8-7.7-19.3-7.5-26.5.1-3.4.4-5.9.5-6.6l15.9 2.4c-.2 1.2-.3 3.3-.3 5.8 0 4.9.7 11.1 3.6 14.5C102.3 151.1 103.9 152.4 107.6 152.4zM195.1 148.1c-11.7 4.5-24.1 5.8-35.3.1-6.7-3.4-11.2-8.6-14.2-13.3-3.6-5.7-5-10.6-5.1-11l7.8-2 7.8-2.1c0 0 .8 2.7 2.6 5.8 1.8 2.9 4.5 6.3 8.5 8.3 5.7 2.9 13.1 2.6 22.1-.8L195.1 148.1z" class="colorfeb9a5 svgShape"/><polygon fill="#f3f1fc" points="135.2 281.4 135.3 288.1 153.1 287.8 153 281.2" class="colorf3f1fc svgShape"/><path fill="#3a55f5" d="M171.1,299.7c-46.9,0.5-31.9,0.3-35.7,0.4l-0.1-14.5c6.5,3.2,7.4-1.7,17.8-0.3                c0,0,5.2,6.9,9.3,7.7C166.2,293.8,171.1,295.8,171.1,299.7z" class="color3a55f5 svgShape"/><path fill="#ffffff" d="M141.5,300c0-3.3-2.6-6.1-6.2-6.1l0-0.5c3.7,0,6.7,2.9,6.7,6.6L141.5,300z" class="colorfff svgShape"/><path fill="#333333" d="M161.3,293c-2.4-0.2-6.1-1.2-6.3-3.7c-0.2-3.4,5.7-0.5,6.5,3.4                 C161.6,292.8,161.5,293,161.3,293z M156.2,288.3c-0.2,0-0.7,0.1-0.6,1c0.1,2.3,4.2,3,5.4,3.2                 C160.3,290.1,157.5,288.1,156.2,288.3z" class="color333 svgShape"/><path fill="#333333" d="M161.1,292.8c0-0.2-0.2-3.9,1.8-4.4c2.3-0.5,1,3.7-1.5,4.6C161.2,293,161.1,292.9,161.1,292.8z                  M163,288.9c-1.3,0.3-1.4,2.6-1.4,3.5c1.3-0.7,2.2-2.5,2-3.2C163.5,288.9,163.3,288.8,163,288.9z" class="color333 svgShape"/><rect width="17.8" height="11" x="135.1" y="272.2" fill="#feb9a5" transform="matrix(.9999 -.01522 .01522 .9999 -4.21 2.224)" class="colorfeb9a5 svgShape"/><path fill="#332f51" d="M171.1,299.7l-7,0.1c-1-2-0.5-4.5,1.2-6C168.4,294.9,171.1,296.8,171.1,299.7z" class="color332f51 svgShape"/><path fill="#eda594" d="M153,278.3c-4.5,2.1-10.6,3.1-17.8,3.1l-0.1-7.1L153,278.3z" class="coloreda594 svgShape"/><path fill="#332f51" d="M171.1,299.7l0,1.5c0,0.7-0.6,1.4-1.3,1.4l-33,0.3c-0.7,0-1.4-0.6-1.4-1.3l0-1.5L171.1,299.7z" class="color332f51 svgShape"/><polygon fill="#f3f1fc" points="94.1 281.2 94.1 287.9 111.9 287.8 111.9 281.2" class="colorf3f1fc svgShape"/><path fill="#3a55f5" d="M129.8,299.9c-46.9,0-31.9,0-35.7,0l0-14.5c6.5,3.2,7.4-1.7,17.8-0.1c0,0,5.1,6.9,9.2,7.8                C125,293.9,129.9,296,129.8,299.9z" class="color3a55f5 svgShape"/><path fill="#ffffff" d="M100.3,299.9c0-3.4-2.8-6.2-6.2-6.2c0,0,0,0,0,0v-0.5c0,0,0,0,0,0c3.7,0,6.7,3,6.7,6.7H100.3z" class="colorfff svgShape"/><path fill="#333333" d="M120.1,293.1c-2.4-0.2-6.1-1.3-6.2-3.8c0-0.9,0.3-1.4,1.1-1.5c1.6-0.2,4.9,2.1,5.4,4.9                 C120.4,292.9,120.3,293.1,120.1,293.1z M115,288.3c-0.2,0-0.7,0.1-0.6,1c0.1,2.3,4.2,3.1,5.4,3.2                 C119.1,290.2,116.4,288.2,115,288.3z" class="color333 svgShape"/><path fill="#333333" d="M119.9,292.8c0-0.2-0.2-3.9,1.9-4.3c0.6-0.1,1,0.1,1.1,0.6c0.3,1.1-0.9,3.4-2.7,4                 C120,293.1,119.9,293,119.9,292.8z M121.8,289c-1.3,0.3-1.5,2.6-1.5,3.5c1.3-0.7,2.2-2.4,2-3.2                 C122.3,289,122.1,288.9,121.8,289z" class="color333 svgShape"/><rect width="17.8" height="11" x="94" y="272.2" fill="#feb9a5" transform="matrix(1 -.00606 .00606 1 -1.68 .629)" class="colorfeb9a5 svgShape"/><path fill="#332f51" d="M129.8,299.9l-7,0c-1-2.1-0.5-4.5,1.2-6C127.2,295,129.9,297,129.8,299.9z" class="color332f51 svgShape"/><path fill="#eda594" d="M111.9,278.3c-4.5,2.1-10.6,3-17.9,3l-0.1-7.1L111.9,278.3z" class="coloreda594 svgShape"/><path fill="#332f51" d="M129.8,299.9l0,1.5c0,0.7-0.6,1.4-1.4,1.4l-33,0c-0.7,0-1.4-0.6-1.4-1.3l0-1.5L129.8,299.9z" class="color332f51 svgShape"/><path fill="#00d3bd" d="M154,278.3c0,1.1-20.5,1.1-20.5,0l-9.8-62.7c0-0.5-10.6,62.7-10.6,62.7c0,1.1-20.8,1.1-20.8,0           l4.6-98.1l0.7-12.7h51.2C154.7,294.3,153.9,276.5,154,278.3z" class="color00d3bd svgShape"/><path fill="#15142b" d="M103.2 275.4c-2.8 0-5.4-.1-7.4-.2-3.3-.2-3.6-.5-3.6-.9 0-.1.1-.3.3-.3.1 0 .2.1.2.2 1.2.9 19.7.9 20.9 0 0-.1.1-.2.2-.2.1 0 .3.1.3.3C114.1 275.1 110.4 275.4 103.2 275.4zM143.2 275.4c-2.8 0-5.3-.1-7.3-.2-3.3-.2-3.5-.5-3.5-.9 0-.3.4-.3.5-.1 1.2.9 19.4.9 20.6 0 .1-.3.5-.2.5.1C154 275.1 150.3 275.4 143.2 275.4z" class="color15142b svgShape"/><path fill="#00baa3" d="M149.1,172.7c-2.3,2.9-5.7,3.9-9.3,4.7c-10.7,2.4-21.7,4.9-32.7,4.8c-3.4,0-6.9-0.2-10.2-0.8l0.7-13.9          h51.2L149.1,172.7z" class="color00baa3 svgShape"/><path fill="#eda594" d="M98 129.7c-.2 1.2-.3 3.3-.3 5.8-6.9.7-12.3-1.5-15.3-1.6-.3 0-.5 0-.8 0 .1-3.4.4-5.9.5-6.6L98 129.7zM158.7 125.6c-1.5 2-4.5 1.7-6.6 2.8-2.7 1.4-3.9 4.9-6.5 6.5-3.6-5.7-5-10.6-5.1-11l7.8-2 7.8-2.1C156.1 119.8 156.8 122.4 158.7 125.6z" class="coloreda594 svgShape"/><path fill="#fe674b" d="M144.4,130.2l5.4,42.3c0,4.3-53,5-53,0.7l-0.9-42.5c0,1.6-15.8,1.4-15.8-0.2          c3.7-19.2,14.1-37.6,39.4-37.1c29.2,0.6,38.2,29.2,38.2,29.2C158.4,123.8,145.1,131.4,144.4,130.2z" class="colorfe674b svgShape"/><g fill="#000000" class="color000 svgShape"><path fill="#15142b" d="M80.7,126.4c0-0.1,0.1-0.2,0.3-0.2c0,0,0,0,0,0c0.1,0,0.2,0.1,0.2,0.3c0,0.4,2.6,1.1,7.8,1.1          c6.5,0.1,7.1-0.8,7-0.8c0-0.1,0.1-0.2,0.3-0.2c0,0,0,0,0,0c0.1,0,0.2,0.1,0.2,0.3c0,0.5-0.8,0.9-2.5,1.1          C90.4,128.3,80.7,128.1,80.7,126.4z" class="color15142b svgShape"/></g><g fill="#000000" class="color000 svgShape"><path fill="#15142b" d="M120.2,176.3c-3.2,0-23.7-0.1-23.7-3.2c0-0.1,0.1-0.3,0.3-0.3s0.3,0.1,0.3,0.3c0,0.3,0.5,1.2,6.9,2          c14.7,1.6,45.6,0.3,45.6-2.6c0-0.1,0.1-0.3,0.3-0.3s0.3,0.1,0.3,0.3C150,175.5,130.5,176.3,120.2,176.3z" class="color15142b svgShape"/></g><g fill="#000000" class="color000 svgShape"><polygon fill="#00baa3" points="123.7 215.6 119 242.7 120.6 202.1" class="color00baa3 svgShape"/></g><g fill="#000000" class="color000 svgShape"><path fill="#15142b" d="M123.7,215.8c-0.1,0-0.2-0.1-0.2-0.2l-3-13.4c0-0.1,0.1-0.3,0.2-0.3c0.1,0,0.3,0.1,0.3,0.2l3,13.4          C123.9,215.6,123.8,215.8,123.7,215.8C123.7,215.8,123.7,215.8,123.7,215.8z" class="color15142b svgShape"/></g><g fill="#000000" class="color000 svgShape"><path fill="#feb9a5" d="M194.8,148.2c2.9-1.1,6.2-2.5,6.8-2.7c0,0,1.3-0.4,1.4-1.3c0.1-0.7-0.8-1.5-0.8-1.5s1.3-0.7,1.3-1.5             c0-0.9-1.2-1.4-1.2-1.4c2.1-1.8,0-3,0-3s1.2-2,0-3.2c-1.1-1.1-4.4,0-4.4,0s2-4,0.6-5.9c-1.2-1.6-8.1,4.6-9.3,5.3             L194.8,148.2z" class="colorfeb9a5 svgShape"/><path fill="#0d243f" d="M200.4 137.3l1.8-.5c.2-.1.4.3.1.4l-1.8.5C200.3 137.8 200.2 137.4 200.4 137.3zM200.4 140.3l1.8-.5c.3-.1.4.3.1.4l-1.8.5C200.3 140.8 200.2 140.4 200.4 140.3zM200.4 143.1l1.8-.5c.1 0 .2 0 .2.1 0 .1 0 .2-.1.2l-1.8.5C200.2 143.6 200.1 143.2 200.4 143.1zM196.2 133.7l1.8-.5c.3-.1.4.3.1.4l-1.8.5C196.1 134.1 195.9 133.8 196.2 133.7z" class="color0d243f svgShape"/></g><g fill="#000000" class="color000 svgShape"><path fill="#15142b" d="M95.8,130.9C95.8,130.9,95.8,130.9,95.8,130.9c-0.2,0-0.3-0.1-0.2-0.3l1-10.1c0-0.1,0.1-0.2,0.3-0.2        c0.1,0,0.2,0.1,0.2,0.3l-1,10.1C96.1,130.8,96,130.9,95.8,130.9z" class="color15142b svgShape"/></g><g fill="#000000" class="color000 svgShape"><path fill="#15142b" d="M144.4,130.4c-0.3,0,0.1,0.3-5.6-9.4c-0.1-0.1,0-0.3,0.1-0.3c0.1-0.1,0.3,0,0.3,0.1l5.4,9.3        C144.7,130.2,144.6,130.4,144.4,130.4z" class="color15142b svgShape"/></g><g fill="#000000" class="color000 svgShape"><path fill="#15142b" d="M141.8,126.2c0-0.1,0-0.3,0.1-0.3c5.9-2.3,10.5-4.7,14-7.4c0.1-0.1,0.3-0.1,0.4,0c0.1,0.1,0.1,0.3,0,0.4        c-3.5,2.8-8.1,5.2-14.1,7.5C142,126.4,141.9,126.3,141.8,126.2z" class="color15142b svgShape"/></g><g fill="#000000" class="color000 svgShape"><path fill="#15142b" d="M84.9,154.3c-0.1-0.1,0-0.3,0.1-0.3l5.2-3.4c0.1-0.1,0.3,0,0.3,0.1c0.1,0.1,0,0.3-0.1,0.3l-5.2,3.4        C85.1,154.4,85,154.4,84.9,154.3z" class="color15142b svgShape"/></g><g fill="#000000" class="color000 svgShape"><path fill="#15142b" d="M166.1,150.9c-0.1,0-0.2-0.2-0.2-0.3l1.5-5.3c0-0.1,0.2-0.2,0.3-0.2c0.1,0,0.2,0.2,0.2,0.3l-1.5,5.3        C166.3,150.8,166.2,150.9,166.1,150.9z" class="color15142b svgShape"/></g><g fill="#000000" class="color000 svgShape"><path fill="#f9c21d" d="M247.5,303h-4c-2-3.8-16.8-31.3-15.6-35.5c1.3-4.6,8.2-4.6,11.6-0.5c2.5,3.1,5.4,13.4,6.8,18.6         c0.5,1.8,0.7,3,0.7,3L247.5,303z" class="colorf9c21d svgShape"/><path fill="#ffffff" d="M276.9,257.9c-1,3.8-3.4,10.5-6.7,17.5c-5.8,12-13.3,25-14.8,27.5h-9.8c0-5.2,0.6-37.3,5.7-38.4          c3.8-0.8,4.6,4.4,4.5,4.9c0.4-1.3,7.8-20.9,15.5-27C279.3,236.2,279.8,247.1,276.9,257.9z" class="colorfff svgShape"/><path fill="#0d243f" d="M245.5,303.2c-0.1,0-0.3-0.1-0.3-0.3c0.1-5.5,0.6-37.5,5.9-38.6c2.6-0.6,4.2,1.5,4.7,4.1          c1.6-4.3,8.2-20.6,15.2-26.1c8.4-6.6,9.1,4.6,6.1,15.6l0,0c-1.1,3.9-3.4,10.6-6.7,17.6c-6,12.4-13.9,26-14.8,27.5          C255.4,303.4,255.8,303.2,245.5,303.2z M245.8,302.7h9.5c1.2-2,8.9-15.3,14.7-27.4c3.3-6.9,5.7-13.6,6.7-17.5          c2.6-9.8,2.9-21.5-5.3-15.1c-7.9,6.2-15.3,26.7-15.4,26.9c0,0.1-0.2,0.2-0.3,0.2c-0.1,0-0.2-0.2-0.2-0.3          c0-0.2-0.2-2.6-1.6-3.9c-0.7-0.7-1.6-0.9-2.7-0.7c-2.2,0.5-3.9,7.8-4.8,20.7C245.9,292.7,245.8,299.8,245.8,302.7z           M276.9,257.9L276.9,257.9L276.9,257.9z" class="color0d243f svgShape"/><path fill="#ffffff" d="M252,301.1c0.6-15.5,5.4-30.9,17.4-46.1" class="colorfff svgShape"/><path fill="#0d243f" d="M252,301.4C252,301.4,252,301.4,252,301.4c-0.1,0-0.3-0.1-0.3-0.3c0.6-17,6.3-32.1,17.4-46.3          c0.1-0.1,0.2-0.1,0.4,0c0.1,0.1,0.1,0.2,0,0.4c-11.1,14-16.7,29.1-17.3,46C252.3,301.3,252.1,301.4,252,301.4z" class="color0d243f svgShape"/><path fill="#00d3bd" d="M273.7,284.5c-2.4,6.5-13.1,16.1-16,18.5H253c0.8-2,7.2-17,13.1-24.2c1.5-1.8,2.8-2.9,4-3.3         C274,273.9,275.8,278.7,273.7,284.5z" class="color00d3bd svgShape"/><g fill="#000000" class="color000 svgShape"><path fill="#0d243f" d="M263.8,303.2h-26.5c-0.1,0-0.3-0.1-0.3-0.3s0.1-0.3,0.3-0.3h26.5c0.1,0,0.3,0.1,0.3,0.3        S263.9,303.2,263.8,303.2z" class="color0d243f svgShape"/></g></g><g fill="#000000" class="color000 svgShape"><path fill="#ffffff" d="M287.7,51.8l0,89.6c0,2.7-2.2,4.8-4.8,4.8l-63.8,0c-2.7,0-4.8-2.2-4.8-4.8l0-89.6c0-2.7,2.2-4.8,4.8-4.8        l63.8,0C285.5,47,287.7,49.2,287.7,51.8z" class="colorfff svgShape"/><path fill="#a6b6f8" d="M219.1,146.6c-2.8,0-5.1-2.3-5.1-5.1l0-89.6c0-2.8,2.3-5.1,5.1-5.1l63.8,0c0,0,0,0,0,0        c2.8,0,5.1,2.3,5.1,5.1l0,89.6c0,2.8-2.3,5.1-5.1,5.1L219.1,146.6C219.1,146.6,219.1,146.6,219.1,146.6z M282.8,47.2        C282.8,47.2,282.8,47.2,282.8,47.2l-63.8,0c-2.5,0-4.6,2.1-4.6,4.6l0,89.6c0,2.5,2.1,4.6,4.6,4.6c0,0,0,0,0,0l63.8,0        c2.5,0,4.6-2.1,4.6-4.6l0-89.6l0,0C287.4,49.3,285.4,47.2,282.8,47.2z" class="colora6b6f8 svgShape"/><path fill="#ccd7f6" d="M231.3,70.1C228,81,234.2,92.5,245,95.7c10.9,3.3,22.3-2.9,25.6-13.8c3.3-10.9-2.9-22.3-13.7-25.6            C246.1,53.1,234.6,59.2,231.3,70.1z M234,70.9c2.8-9.4,12.7-14.7,22.1-11.8c9.4,2.8,14.7,12.7,11.9,22.1            c-2.8,9.4-12.7,14.7-22.1,11.9C236.5,90.2,231.2,80.3,234,70.9z" class="colorccd7f6 svgShape"/><path fill="#ffffff" d="M268.1,81.2c-2.8,9.4-12.8,14.8-22.3,12c-9.6-2.9-14.8-13.1-12-22.3c2.6-9,12.5-14.9,22.3-12           C265.7,61.8,270.9,71.8,268.1,81.2z" class="colorfff svgShape"/><path fill="#fe674b" d="M262.5,85.8c-0.9,0.9-1.9,1.6-3,2.3c-4.6,2.8-10.9,3.2-16,0.6c-0.4-0.2-0.7-0.4-1.1-0.6             c-1.1-0.6-2.1-1.4-3-2.3C239.9,76.9,262,76.9,262.5,85.8z" class="colorfe674b svgShape"/><path fill="#ffffff" d="M243.5 88.7c-.4-.2-.7-.4-1.1-.6 0-.8.2-1.5.5-2.2C243.3 86.8 243.5 87.8 243.5 88.7zM259.5 88.1c-.3.2-.7.4-1.1.6 0-.9.2-1.9.5-2.8C259.3 86.6 259.5 87.4 259.5 88.1z" class="colorfff svgShape"/><path fill="#eda594" d="M247.5,75.7v4c0,1.9,1.6,3.5,3.5,3.5c1.9,0,3.5-1.5,3.5-3.5v-4H247.5z" class="coloreda594 svgShape"/><path fill="#feb9a5" d="M244.5,72.5c0.2,1.3,0.8,2.2,1.4,2.1c0.1,0,0.1,0,0.1,0c0.9,2.9,2.9,5.3,5.2,5.3             c2.3,0,4.2-2.4,5.2-5.3c0,0,0.1,0,0.1,0c0.6,0.1,1.3-0.9,1.4-2.1c0.2-1.3-0.2-2.3-0.8-2.4c-0.1,0-0.2,0-0.2,0             c-0.3-3.8-2.8-5.9-5.7-5.9c-3,0-5.4,2.1-5.7,5.9c-0.1,0-0.2,0-0.2,0C244.7,70.2,244.3,71.3,244.5,72.5z" class="colorfeb9a5 svgShape"/><path fill="#1d2943" d="M257.3,71.7c-1.1-1.4-1.5-1.7-1.4-3.5c-3.8,1.1-5.4,0.8-7.5-1.6c-0.3,1.5-0.6,2.1-1.7,2.7            c0.2,1.1-1,2.1-1.3,2.4c-1-1.1-1.2-1.9-1.3-3.8c-0.1-2,0.3-3.1,2.1-3.3c0,0,5-5.2,9.4-2C260.1,66,257.3,71.7,257.3,71.7z" class="color1d2943 svgShape"/><path fill="#ccd7f6" d="M275.1 104.7v5.4c0 .8-.7 1.5-1.5 1.5h-45.3c-.8 0-1.5-.7-1.5-1.5v-5.4c0-.8.7-1.5 1.5-1.5h45.3C274.4 103.2 275.1 103.9 275.1 104.7zM275.1 117.5v5.4c0 .8-.7 1.5-1.5 1.5h-45.3c-.8 0-1.5-.7-1.5-1.5v-5.4c0-.8.7-1.5 1.5-1.5h45.3C274.4 116 275.1 116.7 275.1 117.5z" class="colorccd7f6 svgShape"/><path fill="#f9c21d" d="M264.9,131v5.4c0,0.8-0.7,1.5-1.5,1.5h-24.8c-0.8,0-1.5-0.7-1.5-1.5V131c0-0.8,0.7-1.5,1.5-1.5h24.8          C264.2,129.5,264.9,130.2,264.9,131z" class="colorf9c21d svgShape"/><path fill="#ffffff" d="M268.6 107.6c0 1.2-1 2.2-2.2 2.2-1.2 0-2.2-1-2.2-2.2 0-1.2 1-2.2 2.2-2.2C267.6 105.4 268.6 106.4 268.6 107.6zM260.9 107.6c0 1.2-1 2.2-2.2 2.2-1.2 0-2.2-1-2.2-2.2 0-1.2 1-2.2 2.2-2.2C259.9 105.4 260.9 106.4 260.9 107.6zM253.2 107.6c0 1.2-1 2.2-2.2 2.2-1.2 0-2.2-1-2.2-2.2 0-1.2 1-2.2 2.2-2.2C252.2 105.4 253.2 106.4 253.2 107.6zM245.5 107.6c0 1.2-1 2.2-2.2 2.2-1.2 0-2.2-1-2.2-2.2 0-1.2 1-2.2 2.2-2.2C244.5 105.4 245.5 106.4 245.5 107.6zM237.8 107.6c0 1.2-1 2.2-2.2 2.2-1.2 0-2.2-1-2.2-2.2 0-1.2 1-2.2 2.2-2.2C236.8 105.4 237.8 106.4 237.8 107.6z" class="colorfff svgShape"/><g fill="#000000" class="color000 svgShape"><path fill="#ffffff" d="M268.6 120.2c0 1.2-1 2.2-2.2 2.2-1.2 0-2.2-1-2.2-2.2 0-1.2 1-2.2 2.2-2.2C267.6 118 268.6 119 268.6 120.2zM260.9 120.2c0 1.2-1 2.2-2.2 2.2-1.2 0-2.2-1-2.2-2.2 0-1.2 1-2.2 2.2-2.2C259.9 118 260.9 119 260.9 120.2zM253.2 120.2c0 1.2-1 2.2-2.2 2.2-1.2 0-2.2-1-2.2-2.2 0-1.2 1-2.2 2.2-2.2C252.2 118 253.2 119 253.2 120.2zM245.5 120.2c0 1.2-1 2.2-2.2 2.2-1.2 0-2.2-1-2.2-2.2 0-1.2 1-2.2 2.2-2.2C244.5 118 245.5 119 245.5 120.2zM237.8 120.2c0 1.2-1 2.2-2.2 2.2-1.2 0-2.2-1-2.2-2.2 0-1.2 1-2.2 2.2-2.2C236.8 118 237.8 119 237.8 120.2z" class="colorfff svgShape"/></g><g fill="#000000" class="color000 svgShape"><path fill="#15142b" d="M258.3,134h-14.7c-0.1,0-0.3-0.1-0.3-0.3s0.1-0.3,0.3-0.3h14.7c0.1,0,0.3,0.1,0.3,0.3         S258.5,134,258.3,134z" class="color15142b svgShape"/></g></g><g fill="#000000" class="color000 svgShape"><path fill="#a6b6f8" d="M157.5 224.5c-.1-.1-.1-.3 0-.4.1-.1.3-.1.4 0 2.2 2.8 5.5 3.8 8.2 2.6 2.1-.9 3.9-3.1 5.9-4.2 1.9-1 4.1-1.2 6.2-.5 2.1.7 3.9 2.3 5.3 4.4.1.1 0 .3-.1.3-.1.1-.3 0-.3-.1-1.3-2.1-3.1-3.6-5-4.2-1.9-.7-4-.5-5.8.5-2.1 1.1-3.8 3.2-6 4.2C163.2 228.6 159.7 227.3 157.5 224.5zM158.4 217.1c-.1-.1-.1-.3 0-.4.1-.1.3-.1.4 0 1.2 1.2 2.9 1.7 4.7 1.4 3.3-.6 6.1-3.7 9.4-4.6 3.7-1.1 7.9.6 10.6 4.3.1.1.1.3-.1.3-.1.1-.3.1-.3-.1-2.6-3.6-6.5-5.2-10-4.1-3.4 1-5.9 4-9.5 4.7C161.6 219.1 159.7 218.5 158.4 217.1z" class="colora6b6f8 svgShape"/></g><g fill="#000000" class="color000 svgShape"><path fill="#a6b6f8" d="M66.2 177.4c-.1 0-.2-.2-.2-.3s.2-.2.3-.2c3.2.5 6-.8 7.1-3.4 1.4-3.2 0-8.4 5.3-10.7 1.8-.8 4.1-.9 6.3-.3.1 0 .2.2.2.3s-.2.2-.3.2c-2.1-.6-4.3-.5-6 .3-4.9 2.2-3.6 7.2-5 10.4C72.7 176.4 69.7 177.9 66.2 177.4zM62.3 171.8c-.1 0-.2-.1-.2-.3 0-.1.1-.2.3-.2 1.6.1 3-.6 4-1.9 1.8-2.4 1.9-6.3 3.5-9 1.8-3.1 5.7-4.5 9.8-3.7.1 0 .2.2.2.3 0 .1-.2.2-.3.2-3.9-.8-7.6.5-9.3 3.4-1.6 2.7-1.5 6.4-3.5 9C65.6 171.2 64 172 62.3 171.8z" class="colora6b6f8 svgShape"/></g><g fill="#000000" class="color000 svgShape"><path fill="#a6b6f8" d="M195.1,185.7c-1.9,0-3.5-1.6-3.5-3.5s1.6-3.5,3.5-3.5s3.5,1.6,3.5,3.5S197,185.7,195.1,185.7z M195.1,179.2      c-1.6,0-3,1.3-3,3s1.3,3,3,3s3-1.3,3-3S196.7,179.2,195.1,179.2z" class="colora6b6f8 svgShape"/></g><g fill="#000000" class="color000 svgShape"><path fill="#ffffff" d="M94.6,76.6c2.6,6.3-0.5,13.6-6.8,16.1c-6.3,2.6-13.6-0.5-16.1-6.8c-2.6-6.3,0.5-13.6,6.8-16.1       C84.8,67.2,92,70.2,94.6,76.6z" class="colorfff svgShape"/><path fill="#0d243f" d="M71.4,85.9c-2.6-6.5,0.5-13.8,7-16.4c6.5-2.6,13.8,0.5,16.4,7v0c2.6,6.5-0.5,13.8-7,16.4       C81.3,95.5,74,92.4,71.4,85.9z M78.6,70c-6.2,2.5-9.2,9.6-6.7,15.8c2.5,6.2,9.6,9.2,15.8,6.7c6.2-2.5,9.2-9.6,6.7-15.8l0,0       C91.9,70.5,84.8,67.4,78.6,70z" class="color0d243f svgShape"/><path fill="#00d3bd" d="M83.7 75c.6 1.5-.1 3.1-1.6 3.7-1.5.6-3.1-.1-3.7-1.6-.6-1.5.1-3.1 1.6-3.7C81.5 72.9 83.1 73.6 83.7 75zM91.1 84.3c-11.7 4.7-12.6 5.6-13 4-.8-3.5 1-7.1 4.4-8.5 3.4-1.4 7.3 0 9.1 3.1C91.9 83.4 91.7 84 91.1 84.3z" class="color00d3bd svgShape"/></g><g fill="#000000" class="color000 svgShape"><path fill="#a6b6f8" d="M174.4,252.8c-0.1,0-0.2-0.2-0.2-0.3s0.2-0.2,0.3-0.2c1.3,0.3,2.6,0.4,3.9,0.3c0.1,0,0.3,0.1,0.3,0.2      s-0.1,0.3-0.2,0.3C177.2,253.1,175.8,253,174.4,252.8z M182.2,252.2c0-0.1,0-0.3,0.2-0.3c1.3-0.4,2.5-0.9,3.6-1.6      c0.1-0.1,0.3,0,0.3,0.1c0.1,0.1,0,0.3-0.1,0.3c-1.1,0.7-2.4,1.2-3.7,1.6C182.3,252.4,182.2,252.3,182.2,252.2z M170.7,251.3      c-0.9-0.5-1.7-1.2-2.4-2c-0.1-0.1-0.1-0.3,0-0.4c0.1-0.1,0.3-0.1,0.4,0c0.7,0.7,1.5,1.4,2.3,1.9c0.1,0.1,0.2,0.2,0.1,0.3      C170.9,251.3,170.8,251.4,170.7,251.3z M189.1,248.3c-0.1-0.1-0.1-0.3,0-0.4c0.9-0.8,1.9-1.8,2.7-2.9c0.1-0.1,0.2-0.1,0.4,0      c0.1,0.1,0.1,0.2,0,0.4c-0.9,1.1-1.8,2.1-2.8,2.9C189.3,248.4,189.2,248.4,189.1,248.3z M194.2,242.2c-0.1-0.1-0.2-0.2-0.1-0.3      c0.7-1.1,1.3-2.2,2-3.4c0.1-0.1,0.2-0.2,0.3-0.1c0.1,0.1,0.2,0.2,0.1,0.3c-0.7,1.3-1.3,2.4-2,3.5      C194.5,242.3,194.3,242.3,194.2,242.2z M198,235.2c-0.1-0.1-0.2-0.2-0.1-0.3c0.1-0.2,0.5-1,1.6-3.7c0.1-0.1,0.2-0.2,0.3-0.1      c0.1,0.1,0.2,0.2,0.1,0.3c-1.3,3-1.5,3.4-1.6,3.7C198.3,235.2,198.1,235.2,198,235.2z M238.5,228.7c-1.3-0.3-2.5-0.8-3.7-1.7      c-0.1-0.1-0.1-0.2,0-0.4c0.1-0.1,0.2-0.1,0.4,0c1.1,0.8,2.3,1.4,3.5,1.6c0.1,0,0.2,0.2,0.2,0.3      C238.8,228.7,238.6,228.7,238.5,228.7z M242.3,228.3c0-0.1,0-0.3,0.2-0.3c1.2-0.4,2.3-1.1,3.3-2c0.1-0.1,0.3-0.1,0.4,0      c0.1,0.1,0.1,0.3,0,0.4c-1,1-2.2,1.7-3.5,2.2C242.4,228.5,242.3,228.4,242.3,228.3z M201.2,227.8c-0.1-0.1-0.2-0.2-0.1-0.3      c0.6-1.4,1.2-2.6,1.7-3.6c0.1-0.1,0.2-0.2,0.3-0.1c0.1,0.1,0.2,0.2,0.1,0.3c-0.5,1.1-1.1,2.2-1.7,3.6      C201.5,227.8,201.3,227.9,201.2,227.8z M232,224.1c-0.7-1-1.4-2.2-2.1-3.5c-0.1-0.1,0-0.3,0.1-0.3c0.1-0.1,0.3,0,0.3,0.1      c0.6,1.3,1.3,2.4,2,3.4c0.1,0.1,0.1,0.3-0.1,0.3C232.2,224.2,232.1,224.2,232,224.1z M248,223.1c-0.1-0.1-0.2-0.2-0.1-0.3      c0.5-1.2,0.7-2.5,0.7-3.8c0-0.1,0.1-0.3,0.2-0.3c0,0,0,0,0,0c0.1,0,0.2,0.1,0.3,0.2c0,1.4-0.2,2.7-0.7,4      C248.3,223.1,248.1,223.1,248,223.1z M204.8,220.7c-0.1-0.1-0.2-0.2-0.1-0.3c0.8-1.4,1.8-2.7,2.3-3.3c0.1-0.1,0.2-0.1,0.4,0      c0.1,0.1,0.1,0.2,0,0.4c-0.4,0.5-1.1,1.4-2.3,3.3C205.1,220.7,204.9,220.8,204.8,220.7z M228.4,216.9c-0.5-1.3-0.9-2.5-1.2-3.8      c0-0.1,0-0.3,0.2-0.3c0.1,0,0.3,0,0.3,0.2c0.4,1.3,0.8,2.5,1.2,3.8c0,0.1,0,0.3-0.2,0.3C228.6,217.1,228.4,217,228.4,216.9z       M247.7,215.2c-0.5-1.2-1.1-2.3-2-3.4c-0.1-0.1-0.1-0.3,0-0.4c0.1-0.1,0.3-0.1,0.4,0c0.9,1.1,1.6,2.3,2.1,3.5      c0.1,0.1,0,0.3-0.1,0.3C247.9,215.3,247.8,215.3,247.7,215.2z M209.7,214.4c-0.1-0.1-0.1-0.3,0-0.4c1-0.9,2-1.8,3.1-2.6      c0.1-0.1,0.3-0.1,0.3,0.1s0.1,0.3-0.1,0.3c-1.1,0.8-2.1,1.6-3,2.6C210,214.5,209.8,214.5,209.7,214.4z M216.1,209.6      c-0.1-0.1,0-0.3,0.1-0.3c1.2-0.7,2.4-1.2,3.6-1.7c0.1-0.1,0.3,0,0.3,0.1s0,0.3-0.1,0.3c-1.2,0.5-2.4,1.1-3.6,1.7      C216.3,209.8,216.2,209.7,216.1,209.6z M226.2,209.1c-0.2-0.9-0.4-1.8-0.5-2.8c-0.6,0.1-1.3,0.3-1.9,0.4c-0.1,0-0.3,0-0.3-0.2      s0-0.3,0.2-0.3c0.6-0.2,1.3-0.3,2-0.4c0-0.2-0.1-0.5-0.1-0.7c0-0.1,0.1-0.3,0.2-0.3c0.1,0,0.3,0.1,0.3,0.2      c0,0.2,0.1,0.4,0.1,0.7c0.5-0.1,1-0.2,1.5-0.2c0.1,0,0.3,0.1,0.3,0.2c0,0.1-0.1,0.3-0.2,0.3c-0.5,0.1-1,0.1-1.5,0.2      c0.1,0.9,0.3,1.9,0.5,2.8c0,0.1-0.1,0.3-0.2,0.3C226.4,209.4,226.2,209.3,226.2,209.1z M242.9,209.1c-1-0.7-2.2-1.3-3.5-1.8      c-0.1,0-0.2-0.2-0.1-0.3c0.1-0.1,0.2-0.2,0.3-0.1c1.3,0.5,2.5,1.1,3.6,1.9c0.1,0.1,0.1,0.2,0.1,0.3      C243.1,209.2,243,209.2,242.9,209.1z M235.6,206.2c-1.3-0.2-2.6-0.4-3.9-0.4c-0.1,0-0.2-0.1-0.2-0.3c0-0.1,0.1-0.2,0.3-0.2      c1.4,0,2.7,0.2,4,0.4c0.1,0,0.2,0.2,0.2,0.3C235.9,206.2,235.7,206.3,235.6,206.2z M225.4,201.4c-0.1,0-0.2-0.1-0.2-0.2      c-0.1-1.3-0.1-2.7-0.2-4c0-0.1,0.1-0.3,0.2-0.3c0,0,0,0,0,0c0.1,0,0.2,0.1,0.3,0.2c0,1.3,0.1,2.7,0.2,4      C225.6,201.3,225.5,201.4,225.4,201.4C225.4,201.4,225.4,201.4,225.4,201.4z M225.3,193.4C225.3,193.4,225.3,193.4,225.3,193.4      c-0.2,0-0.3-0.1-0.3-0.3c0.1-1.3,0.2-2.7,0.4-4c0-0.1,0.1-0.2,0.3-0.2c0.1,0,0.2,0.1,0.2,0.3c-0.2,1.3-0.3,2.6-0.4,4      C225.5,193.3,225.4,193.4,225.3,193.4z M226.2,185.5c-0.1,0-0.2-0.2-0.2-0.3c0.2-1.3,0.5-2.6,0.9-3.9c0-0.1,0.2-0.2,0.3-0.2      c0.1,0,0.2,0.2,0.2,0.3c-0.3,1.3-0.6,2.6-0.9,3.9C226.5,185.4,226.4,185.5,226.2,185.5z M228.2,177.7c-0.1,0-0.2-0.2-0.2-0.3      c0.4-1.3,0.9-2.5,1.4-3.8c0.1-0.1,0.2-0.2,0.3-0.1c0.1,0.1,0.2,0.2,0.1,0.3c-0.5,1.2-0.9,2.5-1.4,3.7      C228.4,177.7,228.3,177.8,228.2,177.7z M231.1,170.3c-0.1-0.1-0.2-0.2-0.1-0.3c0.6-1.2,1.2-2.4,1.9-3.6c0.1-0.1,0.2-0.2,0.3-0.1      c0.1,0.1,0.2,0.2,0.1,0.3c-0.6,1.1-1.3,2.3-1.8,3.5C231.4,170.3,231.2,170.4,231.1,170.3z M235,163.3c-0.1-0.1-0.1-0.2-0.1-0.3      c0.7-1.1,1.5-2.2,2.3-3.3c0.1-0.1,0.2-0.1,0.4,0c0.1,0.1,0.1,0.2,0,0.4c-0.8,1-1.6,2.1-2.3,3.2      C235.3,163.4,235.1,163.4,235,163.3z" class="colora6b6f8 svgShape"/></g><g fill="#000000" class="color000 svgShape"><path fill="#a6b6f8" d="M160.3,99.3c-0.1-0.1-0.1-0.3,0-0.4l4-4c0.1-0.1,0.3-0.1,0.4,0c0.1,0.1,0.1,0.3,0,0.4l-4,4      C160.6,99.4,160.4,99.4,160.3,99.3z" class="colora6b6f8 svgShape"/><path fill="#a6b6f8" d="M164.3,99.3l-4-4c-0.1-0.1-0.1-0.3,0-0.4c0.1-0.1,0.3-0.1,0.4,0l4,4c0.1,0.1,0.1,0.3,0,0.4      C164.6,99.4,164.4,99.4,164.3,99.3z" class="colora6b6f8 svgShape"/></g><g fill="#000000" class="color000 svgShape"><path fill="#15142b" d="M124.8,81.5c-0.1,0-0.2-0.1-0.2-0.2c-0.3-2.3,1.6-3,1.6-3c0.1-0.1,0.3,0,0.3,0.1c0,0.1,0,0.3-0.1,0.3     c-0.1,0-1.5,0.6-1.3,2.5C125,81.3,124.9,81.5,124.8,81.5z" class="color15142b svgShape"/></g><g fill="#000000" class="color000 svgShape"><path fill="#15142b" d="M124.9,79.9c-0.1-0.1-0.2-0.2-0.1-0.3c0.1-0.1,0.2-0.2,0.3-0.1c0.7,0.3,1.2,0.6,1.8,0.5     c0.2,0,0.3,0.1,0.3,0.2c0,0.1-0.1,0.3-0.2,0.3C126.3,80.5,125.6,80.2,124.9,79.9z" class="color15142b svgShape"/></g></svg>